<svg id="Layer_1" data-name="Layer 1" xmlns="http://www.w3.org/2000/svg" viewBox="0 0 300 300"><defs><style>.cls-1{fill:#21140d;}.cls-2{fill:#f0d0b4;}.cls-3{fill:#414042;}.cls-4{fill:#231f20;}.cls-5{fill:#cea28b;}.cls-6{fill:#832884;}</style></defs><title>Artboard 10</title><path class="cls-1" d="M196.69,223.86v-149H101.91v149S142.66,192.94,196.69,223.86Z"/><path class="cls-2" d="M192.74,117c0-16.53-19.14-29.93-42.74-29.93s-42.73,13.4-42.73,29.93S126.4,146.91,150,146.91,192.74,133.51,192.74,117Z"/><rect class="cls-2" x="142.66" y="135.48" width="14.69" height="16.8"/><polygon class="cls-3" points="106.35 257.35 140.89 257.35 140.98 248.71 116.26 248.71 106.35 257.35"/><polygon class="cls-3" points="193.69 257.35 159.16 257.35 159.06 248.71 183.79 248.71 193.69 257.35"/><polygon class="cls-4" points="183.22 233.89 182.39 210.98 150 210.98 117.62 210.98 116.78 233.89 116.21 249.72 140.98 249.72 144.76 233.89 154.81 233.89 159.03 249.72 183.8 249.72 183.22 233.89"/><path class="cls-2" d="M195.86,99.91a46,46,0,1,1-46-46A46,46,0,0,1,195.86,99.91Z"/><path class="cls-4" d="M134.34,99.91a6.6,6.6,0,1,1-6.59-6.59A6.59,6.59,0,0,1,134.34,99.91Z"/><path class="cls-4" d="M178.59,99.91a6.6,6.6,0,1,1-6.6-6.59A6.6,6.6,0,0,1,178.59,99.91Z"/><path class="cls-5" d="M162.16,125.74s0,11.77-12.29,11.77-12.3-11.77-12.3-11.77"/><path class="cls-2" d="M205.76,209.64l-12.85-35-11.29,2.91,13.51,36.79h0a5.15,5.15,0,0,0,2.57,5.23c4.11,2.15,2.79-1.86,2.79-1.86s7.46,2.47,12.82-2.25C217.42,211.86,209.69,210.22,205.76,209.64Z"/><path class="cls-2" d="M94.24,209.64l12.86-35,11.28,2.91-13.51,36.79h0a5.13,5.13,0,0,1-2.57,5.23c-4.11,2.15-2.78-1.86-2.78-1.86s-7.47,2.47-12.83-2.25C82.58,211.86,90.31,210.22,94.24,209.64Z"/><path class="cls-6" d="M199.89,178.5S186.41,149.69,173,146.69l0-.1-.23,0-.16,0v.07a127,127,0,0,1-45.24,0v-.07l-.16,0-.23,0,0,.1c-13.38,3-26.86,31.81-26.86,31.81L117,184.29,105.2,229.06h89.6L183,184.29Z"/><path class="cls-1" d="M156.69,42.86a111,111,0,0,0-13.65,0c-55.21,5.86-41.59,62.93-41.59,62.93,0-20.54,31.59-12.88,46.21-29.07,14.05-15.55,50.63,8.53,50.63,29.07C198.29,105.79,211.66,48.72,156.69,42.86Z"/><path class="cls-1" d="M130.76,144.81s-4.94,11.18,5.87,25.51-1.93,25.31-1.93,25.31-7,8.36,0,15.36c0,0-12.09-2.44-10-19,.76-6,4.69-20.17-1.07-25.5s-14.8-14.62-11.87-24.39"/><path class="cls-1" d="M191.21,153.78s-6.7,6.94-4.28,20.51a16.1,16.1,0,0,1-9.22,18.21s-7.11,4.29-4.84,11.38c0,0-7.78-5.64-.4-16.79s6.89-15.34,4.87-20.87-2.41-13.19,2.56-19.63"/><path class="cls-1" d="M163.6,146.59s3.37,10.35-1.44,16.6-.35,15,1.3,17.75c0,0,1.5-10.52,5.14-11.25,10-2,10-25.81,10-25.81"/><path class="cls-1" d="M106.14,135.43s8.73,13.64,5.82,18-.3,22.48,7.05,26.81c0,0-9.76-17.84-.48-24s-5.82-18.75-5.82-18.75"/><path class="cls-1" d="M164.46,91.2s3.46-4.53,12.66-.84S165.4,78.37,164.46,91.2Z"/><path class="cls-1" d="M135.23,91.2s-3.47-4.53-12.67-.84S134.29,78.37,135.23,91.2Z"/></svg>