<svg id="Layer_1" data-name="Layer 1" xmlns="http://www.w3.org/2000/svg" viewBox="0 0 300 300"><defs><style>.cls-1{fill:#211314;}.cls-2{fill:#dfb28b;}.cls-3{fill:#414042;}.cls-4{fill:#231f20;}.cls-5{fill:#cb8c84;}.cls-6{fill:#fff;}.cls-7{fill:#281014;}.cls-8{fill:#00aeef;}</style></defs><title>Artboard 12</title><path class="cls-1" d="M197.67,165.09s.56-60.09,0-80.11c-.09-2.81-.64-11.22-.64-11.22l-92.41-2.69s-1.52,6.77-1.73,9.07c-2,21.14,0,85,0,85Z"/><rect class="cls-2" x="142.93" y="127.21" width="14.69" height="16.8"/><polygon class="cls-3" points="118.73 263.29 143.7 263.29 143.77 255.35 125.89 255.35 118.73 263.29"/><polygon class="cls-3" points="181.74 263.29 156.77 263.29 156.7 255.35 174.58 255.35 181.74 263.29"/><path class="cls-2" d="M196.25,90.57a46,46,0,1,1-46-46A46,46,0,0,1,196.25,90.57Z"/><path class="cls-4" d="M134.76,93.94a6.6,6.6,0,1,1-6.59-6.59A6.6,6.6,0,0,1,134.76,93.94Z"/><path class="cls-4" d="M179,93.94a6.6,6.6,0,1,1-6.59-6.59A6.6,6.6,0,0,1,179,93.94Z"/><path class="cls-5" d="M138,116.38h24.58s0,11.77-12.3,11.77S138,116.38,138,116.38Z"/><polygon class="cls-6" points="174.2 236.21 173.65 213.7 150.27 213.7 126.9 213.7 126.35 236.21 125.88 255.37 143.76 255.37 146.84 236.21 147.93 229.37 152.14 229.36 153.36 236.21 156.79 255.37 174.67 255.37 174.2 236.21"/><path class="cls-2" d="M115.85,170.92h0L109,200.54c-2.92.73-8.67,2.65-5.45,6.09,4.22,4.52,9.73,1.77,9.73,1.77s-.84,4,2.17,1.75c1.67-1.28,1.87-3.56,1.72-5.32h0l7.23-31s0,0,0-.06c4.75-18.68,7.62-21.39,7.62-21.39l1.41-14C120.08,145.32,115.85,170.92,115.85,170.92Z"/><path class="cls-2" d="M184.7,170.92h0l6.9,29.61c2.92.73,8.67,2.65,5.45,6.09-4.22,4.52-9.73,1.77-9.73,1.77s.84,4-2.17,1.75c-1.67-1.28-1.87-3.56-1.72-5.32h0l-7.23-31s0,0,0-.06c-4.75-18.68-7.62-21.39-7.62-21.39l-1.4-14C180.47,145.32,184.7,170.92,184.7,170.92Z"/><path class="cls-7" d="M119.35,84.41a3.54,3.54,0,0,1,.31-.64,6.87,6.87,0,0,1,1.15-1.48,8.08,8.08,0,0,1,1-.83,8.52,8.52,0,0,1,1.21-.75,7.76,7.76,0,0,1,1.42-.6,10.28,10.28,0,0,1,1.55-.37c.53-.07,1.07-.08,1.59-.1s1,.11,1.53.16.93.24,1.36.36a9,9,0,0,1,1.16.48,7.44,7.44,0,0,1,1.59,1c.36.26.55.43.55.43s-.26,0-.7-.07c-.22,0-.48,0-.78-.11s-.62-.08-1-.12-.74-.09-1.14-.12-.82,0-1.25-.07-.87,0-1.31,0-.89.07-1.33.14-.89.13-1.31.25l-.64.15-.61.2c-.41.13-.79.29-1.16.43s-.72.3-1,.47A20.23,20.23,0,0,0,119.35,84.41Z"/><path class="cls-7" d="M181.22,84.41a20.23,20.23,0,0,0-2.14-1.19c-.31-.17-.67-.3-1-.47s-.75-.3-1.16-.43l-.61-.2-.64-.15c-.43-.12-.87-.16-1.31-.25s-.89-.08-1.33-.14-.88,0-1.31,0-.85.06-1.25.07-.78.1-1.14.12-.7.06-1,.12-.55.08-.77.11c-.44.06-.7.07-.7.07s.19-.17.55-.43a7.44,7.44,0,0,1,1.59-1,9.47,9.47,0,0,1,1.15-.48c.43-.12.89-.26,1.37-.36s1-.13,1.53-.16,1.05,0,1.58.1a10.12,10.12,0,0,1,1.56.37,7.38,7.38,0,0,1,1.41.6,8.1,8.1,0,0,1,1.22.75,7.24,7.24,0,0,1,.95.83,6.65,6.65,0,0,1,1.16,1.48A3.54,3.54,0,0,1,181.22,84.41Z"/><path class="cls-1" d="M156.69,64.78l6.88-25.62s34.1,3.51,34.1,39.88C197.67,79,190.18,87.53,156.69,64.78Z"/><path class="cls-1" d="M102.89,87.57s33.43-1.16,53.8-22.79l6.88-25.62S101.45,20.24,102.89,87.57Z"/><path class="cls-8" d="M150.27,140.32a73,73,0,0,1-17-2L117.54,215l65.5.17-15.76-76.87A73,73,0,0,1,150.27,140.32Z"/></svg>