<svg id="Layer_1" data-name="Layer 1" xmlns="http://www.w3.org/2000/svg" viewBox="0 0 300 300"><defs><style>.cls-1{fill:#0e0534;}.cls-2{fill:#efc7b0;}.cls-3{fill:#231f20;}.cls-4{fill:#dfa3a0;}.cls-5{fill:#3c2415;}.cls-6{fill:#242c50;}.cls-7{fill:#fff;}.cls-8{fill:#291a16;}.cls-9{fill:#d71920;}</style></defs><title>Artboard 13</title><path class="cls-1" d="M194.52,60.6s11.28,32.15,5.59,44.4-14.43,8.7-14.43,8.7S185.79,59.5,194.52,60.6Z"/><circle class="cls-2" cx="150.79" cy="92.63" r="45.26" transform="translate(-21.33 133.76) rotate(-45)"/><path class="cls-3" d="M135.52,92.63A6.5,6.5,0,1,1,129,86.14,6.49,6.49,0,0,1,135.52,92.63Z"/><path class="cls-3" d="M179.05,92.63a6.49,6.49,0,1,1-6.49-6.49A6.48,6.48,0,0,1,179.05,92.63Z"/><path class="cls-4" d="M138.7,118h24.2s0,11.59-12.11,11.59S138.7,118,138.7,118Z"/><path class="cls-5" d="M150.79,50.91c-25-1.25-32.91,3.28-39.21,10.15-11.46,12.48-6,31.78-6,31.78s.6-22,12.93-26.56c11.59-4.3,37.08-13,66.26,1.24,13.81,6.71,10.16,35.62,10.16,35.62s7-23.68-1.8-38.42C188.58,57.1,150.79,50.91,150.79,50.91Z"/><path class="cls-1" d="M150.72,32.21c-45.19.76-45.19,39.54-45.19,39.54s9.8-15.7,41.51-17.59c37.16-2.22,49,17.59,49,17.59S197.57,31.43,150.72,32.21Z"/><polygon class="cls-6" points="150.93 217.66 124.84 217.66 123.7 258.67 143.66 258.67 148.31 233.09 153.01 233.08 158.2 258.67 178.15 258.67 177.01 217.66 150.93 217.66"/><rect class="cls-2" x="143.7" y="132.55" width="14.45" height="16.53"/><path class="cls-2" d="M193,205.52l-9.69-34.45-8.51,2.87L185,210.14h0c-.08,1.74.21,4,1.93,5.15,3.1,2.11,2.11-1.83,2.11-1.83s5.62,2.43,9.67-2.22C201.75,207.71,195.92,206.09,193,205.52Z"/><path class="cls-2" d="M108.89,205.52l9.69-34.45,8.51,2.87-10.18,36.2h0c.08,1.74-.21,4-1.93,5.15-3.1,2.11-2.1-1.83-2.1-1.83s-5.63,2.43-9.67-2.22C100.11,207.71,105.93,206.09,108.89,205.52Z"/><polygon class="cls-5" points="115.77 267.8 143.58 267.8 143.66 258.65 123.74 258.65 115.77 267.8"/><polygon class="cls-5" points="186.12 267.8 158.3 267.8 158.22 258.65 178.14 258.65 186.12 267.8"/><path class="cls-7" d="M167.7,143.48a72.13,72.13,0,0,1-16.77,2,74.39,74.39,0,0,1-17-2l17,30.46Z"/><path class="cls-5" d="M117.85,76.92s10-4,18.79-1.26c0,0-.23-4.84-8-3.91C122,72.54,120,74.71,117.85,76.92Z"/><path class="cls-5" d="M183.73,76.92s-10-4-18.78-1.26c0,0,.23-4.84,8-3.91C179.61,72.54,181.6,74.71,183.73,76.92Z"/><path class="cls-5" d="M98.72,75.67s0,3.12,2.71,2.43S105,74.27,105,74.27s5.27,7.41-.86,7.84S97.73,76.36,98.72,75.67Z"/><path class="cls-5" d="M102.56,67.16s-1.92,2.45.64,3.57,5.16-.81,5.16-.81-.42,9.08-5.51,5.64S101.35,67.09,102.56,67.16Z"/><path class="cls-5" d="M185.68,75.75s2.38,2,3.6-.51-.63-5.18-.63-5.18,9.06.74,5.44,5.7S185.57,77,185.68,75.75Z"/><path class="cls-5" d="M175.32,51.63s2.44,1.92.23,3.62-5.21.44-5.21.44,2.56,8.72,6.68,4.17S176.47,51.27,175.32,51.63Z"/><path class="cls-5" d="M166.83,52.58s3.09-.27,2.65,2.48S166,59,166,59s7.84,4.59,7.72-1.55S167.42,51.53,166.83,52.58Z"/><path class="cls-5" d="M121.37,61.85s-3,3.65,2,5.55c0,0-2.18-2.47.38-3.9S122.17,60.13,121.37,61.85Z"/><path class="cls-5" d="M102.85,81.14S99,83.85,103.27,87c0,0-1.43-3,1.42-3.64S104.09,79.7,102.85,81.14Z"/><path class="cls-5" d="M193,75.89s-3.82,2.71.41,5.88c0,0-1.43-3,1.43-3.65S194.26,74.45,193,75.89Z"/><path class="cls-5" d="M197.23,93.22s4.62-.79,2.16-5.48c0,0,0,3.3-2.86,2.68S195.49,94,197.23,93.22Z"/><path class="cls-5" d="M119.92,63.13s-5.72-1.28-6,5.81c0,0,4.47-4.58,5.51.83C119.42,69.77,124.41,66.26,119.92,63.13Z"/><path class="cls-5" d="M193.88,74.32s.54,5.84,7.38,3.93c0,0-5.73-2.84-.9-5.5C200.36,72.75,195.49,69.09,193.88,74.32Z"/><path d="M190.12,89.94V85a6.76,6.76,0,0,0-6.75-6.75H161.44A6.76,6.76,0,0,0,154.7,85v5.13a9.39,9.39,0,0,0-8,0V85A6.75,6.75,0,0,0,140,78.2H118.05A6.75,6.75,0,0,0,111.31,85v5l-6-4v5.24l6,4.11v5a6.75,6.75,0,0,0,6.74,6.75H140a6.75,6.75,0,0,0,6.74-6.75V95.14a5.88,5.88,0,0,1,8,0v5.17a6.76,6.76,0,0,0,6.74,6.75h21.93a6.76,6.76,0,0,0,6.75-6.75v-5l5.94-4.11V85.93Zm-47.79,10.37a2.36,2.36,0,0,1-2.35,2.36H118.05a2.36,2.36,0,0,1-2.35-2.36V85a2.36,2.36,0,0,1,2.35-2.36H140A2.36,2.36,0,0,1,142.33,85Zm43.39,0a2.36,2.36,0,0,1-2.35,2.36H161.44a2.36,2.36,0,0,1-2.35-2.36V85a2.36,2.36,0,0,1,2.35-2.36h21.93A2.36,2.36,0,0,1,185.72,85Z"/><path class="cls-8" d="M138.45,52.74s9-3.42,23.07-.74V46.51s-12.53-3.88-23.07.86Z"/><path class="cls-9" d="M194.05,204.66S177,144.21,167.7,143.48h0c-5.45,1.28-11.11,9-16.91,9.09-5.79-.11-11.45-7.81-16.9-9.09h0c-9.26.73-26.35,61.18-26.35,61.18l12.22,3.85,9-33.71-7.6,46.46h59.27l-7.6-46.46,9,33.71Z"/></svg>