<svg id="Layer_1" data-name="Layer 1" xmlns="http://www.w3.org/2000/svg" viewBox="0 0 300 300"><defs><style>.cls-1{fill:#2e1705;}.cls-2{fill:#eebeab;}.cls-3{fill:#002848;}.cls-4{fill:#231f20;}.cls-5{fill:#f1f2f2;}.cls-5,.cls-6,.cls-7,.cls-8,.cls-9{stroke:#002a41;stroke-width:0.15px;}.cls-13,.cls-5,.cls-6,.cls-7,.cls-8,.cls-9{stroke-miterlimit:10;}.cls-6{fill:#306a92;}.cls-7{fill:#123e5b;}.cls-8{fill:#fff;}.cls-17,.cls-9{fill:#004f69;}.cls-10,.cls-11{fill:#00061e;}.cls-11,.cls-12{opacity:0.96;}.cls-12{fill:#002f41;}.cls-13{fill:none;stroke:#808285;stroke-width:1.48px;}.cls-14{fill:#414042;}.cls-15{fill:#bcbec0;}.cls-16{fill:#d3437a;}.cls-18{fill:#001123;opacity:0.7;}</style></defs><title>Artboard 14</title><path class="cls-1" d="M102.44,88.44s2.91,12.65,1.15,18.65c-3.46,11.76-4.25,18.17-.41,25.76,5.51,10.86,1.68,19.89,1.68,19.89s11.71-.71,10.25-10.45a7,7,0,0,1,1.17,8.83s11.17-6.69,18.48.31c0,0-2.65-13.67,5-12.93a122.94,122.94,0,0,0,17.47,0s16.44,4.67,7.65,10.15c0,0,11,4.87,6.85-4.57,0,0,7.72-.74,9.37,4.74,0,0,5.9-4.22,3.81-12.61,1.12,10.48,4.33,6.56,4.64,13.49,0,0,11.25-16,7.95-35.52-2.34-13.81,2.45-29.85-1.21-43.17C196.27,71,114.25,58.59,102.44,88.44Z"/><path class="cls-2" d="M170.67,139.82c-4.61-1.16-14.29-3.61-20.67-3.61s-16.06,2.45-20.67,3.61c-11,2.77-16.23,27.17-16.23,27.17L124,164.62l.4,44.94h51.22l.4-44.94L186.9,167S181.67,142.59,170.67,139.82Z"/><polygon class="cls-3" points="124.4 206.51 123.29 255.75 142.87 255.75 147.43 229.85 152.05 229.84 157.13 255.75 176.72 255.75 175.6 206.51 124.4 206.51"/><polygon class="cls-4" points="115.5 265 142.79 265 142.87 255.74 123.33 255.74 115.5 265"/><polygon class="cls-4" points="184.53 265 157.24 265 157.16 255.74 176.71 255.74 184.53 265"/><polygon class="cls-1" points="126.67 210.53 126.57 217.62 173.43 217.62 173.32 210.53 126.67 210.53"/><rect class="cls-4" x="127.83" y="210.04" width="1.88" height="8.3"/><rect class="cls-4" x="142.86" y="210.04" width="1.88" height="8.3"/><rect class="cls-4" x="170.28" y="210.04" width="1.88" height="8.3" transform="translate(342.45 428.38) rotate(-180)"/><rect class="cls-4" x="155.25" y="210.04" width="1.88" height="8.3" transform="translate(312.39 428.38) rotate(-180)"/><path class="cls-5" d="M134.22,138.51a25.37,25.37,0,0,0-4.41.56h4.38Z"/><path class="cls-5" d="M135,139.07c-.16-.36-.23-.57-.23-.57h-.55l0,.56Z"/><path class="cls-5" d="M165.8,138.51h-.56s-.07.21-.23.57h.82Z"/><path class="cls-5" d="M170.2,139.07a25.18,25.18,0,0,0-4.4-.56l0,.56Z"/><path class="cls-5" d="M125,140.84a9.48,9.48,0,0,0-2.78,2.34h2.61Z"/><path class="cls-5" d="M129.44,143.18l.23-4.08a17.06,17.06,0,0,0-4.64,1.74l-.17,2.34Z"/><path class="cls-5" d="M129.44,143.18H134l.18-4.11h-4.38l-.14,0Z"/><path class="cls-5" d="M134,143.18h3.53a17.37,17.37,0,0,1-2.54-4.11h-.81Z"/><path class="cls-5" d="M166,143.18l-.2-4.11H165a17.5,17.5,0,0,1-2.55,4.11Z"/><path class="cls-5" d="M166,143.18h4.57l-.25-4.07-.15,0h-4.37Z"/><path class="cls-5" d="M175.18,143.18l-.18-2.32a16.52,16.52,0,0,0-4.65-1.75l.25,4.07Z"/><path class="cls-5" d="M177.76,143.18a9.46,9.46,0,0,0-2.76-2.32l.18,2.32Z"/><path class="cls-5" d="M120,146.84l-.24.44h.2Z"/><path class="cls-5" d="M124.57,147.28l.29-4.1h-2.61c-.15.19-.3.38-.43.58-.59.9-1.21,1.94-1.84,3.08l0,.44Z"/><polygon class="cls-5" points="124.57 147.28 129.2 147.28 129.44 143.18 124.86 143.18 124.57 147.28"/><polygon class="cls-5" points="133.83 147.28 134.01 143.18 129.44 143.18 129.2 147.28 133.83 147.28"/><path class="cls-5" d="M138.46,147.28l.09-3c-.37-.37-.7-.74-1-1.11H134l-.18,4.1Z"/><path class="cls-6" d="M138.55,144.29l-.09,3h4.27A15.55,15.55,0,0,1,138.55,144.29Z"/><path class="cls-6" d="M161.49,144.25a15.29,15.29,0,0,1-4.21,3h4.32Z"/><path class="cls-5" d="M161.6,147.28h4.63l-.2-4.1h-3.57c-.29.35-.62.71-1,1.07Z"/><polygon class="cls-5" points="161.6 147.28 161.49 144.25 161.6 147.28 161.6 147.28"/><polygon class="cls-5" points="170.86 147.28 170.6 143.18 166.03 143.18 166.23 147.28 170.86 147.28"/><polygon class="cls-5" points="175.49 147.28 175.18 143.18 170.6 143.18 170.86 147.28 175.49 147.28"/><path class="cls-5" d="M175.49,147.28h4.62l0-.33c-.65-1.19-1.29-2.26-1.89-3.19-.14-.2-.28-.39-.43-.58h-2.58Z"/><path class="cls-5" d="M180.27,147.28l-.19-.33,0,.33Z"/><path class="cls-5" d="M119.94,147.28h-.2q-1,1.89-2.09,4.11h1.95Z"/><polygon class="cls-5" points="124.57 147.28 119.94 147.28 119.6 151.39 124.28 151.39 124.57 147.28"/><polygon class="cls-5" points="128.96 151.39 129.2 147.28 124.57 147.28 124.28 151.39 128.96 151.39"/><polygon class="cls-5" points="133.65 151.39 133.83 147.28 129.2 147.28 128.96 151.39 133.65 151.39"/><polygon class="cls-5" points="138.33 151.39 138.46 147.28 133.83 147.28 133.65 151.39 138.33 151.39"/><path class="cls-6" d="M143,151.39l.07-3.93-.35-.18h-4.27l-.13,4.11Z"/><path class="cls-6" d="M147.71,148.75a15.91,15.91,0,0,1-4.63-1.29l-.07,3.93h4.69Z"/><path class="cls-7" d="M152.38,151.39l0-2.65a17.78,17.78,0,0,1-2.36.15,18.65,18.65,0,0,1-2.29-.14v2.64Z"/><path class="cls-6" d="M157.06,151.39l-.09-4a15.47,15.47,0,0,1-4.61,1.31l0,2.65Z"/><path class="cls-6" d="M157.06,151.39h4.68l-.14-4.11h-4.32l-.31.15Z"/><polygon class="cls-5" points="166.43 151.39 166.23 147.28 161.6 147.28 161.75 151.39 166.43 151.39"/><polygon class="cls-5" points="161.75 151.39 161.75 151.39 161.6 147.28 161.6 147.28 161.75 151.39"/><polygon class="cls-5" points="171.11 151.39 170.86 147.28 166.23 147.28 166.43 151.39 171.11 151.39"/><polygon class="cls-5" points="171.11 151.39 175.79 151.39 175.49 147.28 170.86 147.28 171.11 151.39"/><polygon class="cls-5" points="180.48 151.39 180.11 147.28 175.49 147.28 175.79 151.39 180.48 151.39"/><path class="cls-5" d="M180.48,151.39h1.88q-1.06-2.22-2.09-4.11h-.16Z"/><path class="cls-8" d="M119.6,151.39h-1.95c-.63,1.3-1.26,2.67-1.88,4.1h3.48Z"/><polygon class="cls-8" points="124.28 151.39 119.6 151.39 119.25 155.49 123.99 155.49 124.28 151.39"/><polygon class="cls-8" points="128.96 151.39 124.28 151.39 123.99 155.49 128.73 155.49 128.96 151.39"/><polygon class="cls-8" points="133.46 155.49 133.65 151.39 128.96 151.39 128.73 155.49 133.46 155.49"/><polygon class="cls-8" points="138.2 155.49 138.33 151.39 133.65 151.39 133.46 155.49 138.2 155.49"/><polygon class="cls-7" points="142.94 155.49 143.01 151.39 138.33 151.39 138.2 155.49 142.94 155.49"/><polygon class="cls-7" points="147.68 155.49 147.69 151.39 143.01 151.39 142.94 155.49 147.68 155.49"/><polygon class="cls-9" points="152.38 151.39 147.69 151.39 147.68 155.49 152.41 155.49 152.38 151.39"/><polygon class="cls-7" points="152.41 155.49 157.15 155.49 157.06 151.39 152.38 151.39 152.41 155.49"/><polygon class="cls-7" points="161.89 155.49 161.75 151.39 157.06 151.39 157.15 155.49 161.89 155.49"/><polygon class="cls-8" points="166.63 155.49 166.43 151.39 161.75 151.39 161.89 155.49 166.63 155.49"/><polygon class="cls-8" points="161.89 155.49 161.75 151.39 161.75 151.39 161.89 155.49 161.89 155.49"/><polygon class="cls-8" points="166.63 155.49 171.37 155.49 171.11 151.39 166.43 151.39 166.63 155.49"/><polygon class="cls-8" points="176.1 155.49 175.79 151.39 171.11 151.39 171.37 155.49 176.1 155.49"/><polygon class="cls-8" points="176.1 155.49 180.84 155.49 180.48 151.39 175.79 151.39 176.1 155.49"/><path class="cls-8" d="M180.84,155.49h3.4c-.63-1.43-1.26-2.8-1.88-4.1h-1.88Z"/><path class="cls-5" d="M114.13,159.38c0,.07,0,.15-.08.22h.06Z"/><path class="cls-5" d="M118.9,159.6l.35-4.11h-3.48c-.55,1.26-1.1,2.56-1.64,3.89l0,.22Z"/><polygon class="cls-5" points="123.99 155.49 119.25 155.49 118.9 159.6 123.7 159.6 123.99 155.49"/><polygon class="cls-5" points="128.73 155.49 123.99 155.49 123.7 159.6 128.49 159.6 128.73 155.49"/><polygon class="cls-5" points="128.73 155.49 128.49 159.6 133.28 159.6 133.46 155.49 128.73 155.49"/><polygon class="cls-5" points="133.46 155.49 133.28 159.6 138.07 159.6 138.2 155.49 133.46 155.49"/><polygon class="cls-6" points="142.94 155.49 138.2 155.49 138.07 159.6 142.87 159.6 142.94 155.49"/><polygon class="cls-6" points="147.66 159.6 147.68 155.49 142.94 155.49 142.87 159.6 147.66 159.6"/><polygon class="cls-7" points="152.45 159.6 152.41 155.49 147.68 155.49 147.66 159.6 152.45 159.6"/><polygon class="cls-6" points="157.24 159.6 157.15 155.49 152.41 155.49 152.45 159.6 157.24 159.6"/><polygon class="cls-6" points="162.03 159.6 161.89 155.49 157.15 155.49 157.24 159.6 162.03 159.6"/><polygon class="cls-5" points="162.03 159.6 166.83 159.6 166.63 155.49 161.89 155.49 162.03 159.6"/><polygon class="cls-5" points="161.89 155.49 162.03 159.6 162.03 159.6 161.89 155.49 161.89 155.49"/><polygon class="cls-5" points="171.62 159.6 171.37 155.49 166.63 155.49 166.83 159.6 171.62 159.6"/><polygon class="cls-5" points="171.62 159.6 176.41 159.6 176.1 155.49 171.37 155.49 171.62 159.6"/><polygon class="cls-5" points="176.41 159.6 181.2 159.6 180.84 155.49 176.1 155.49 176.41 159.6"/><path class="cls-5" d="M181.2,159.6H186c-.57-1.41-1.14-2.78-1.72-4.11h-3.4Z"/><path class="cls-5" d="M114.11,159.6h-.06c-.54,1.34-1.07,2.72-1.59,4.1h1.25Z"/><polygon class="cls-5" points="118.9 159.6 114.11 159.6 113.71 163.7 118.56 163.7 118.9 159.6"/><polygon class="cls-5" points="123.41 163.7 123.7 159.6 118.9 159.6 118.56 163.7 123.41 163.7"/><polygon class="cls-5" points="123.7 159.6 123.41 163.7 128.25 163.7 128.49 159.6 123.7 159.6"/><polygon class="cls-5" points="128.49 159.6 128.25 163.7 133.1 163.7 133.28 159.6 128.49 159.6"/><polygon class="cls-5" points="138.07 159.6 133.28 159.6 133.1 163.7 137.95 163.7 138.07 159.6"/><polygon class="cls-6" points="142.87 159.6 138.07 159.6 137.95 163.7 142.79 163.7 142.87 159.6"/><polygon class="cls-6" points="147.66 159.6 142.87 159.6 142.79 163.7 147.64 163.7 147.66 159.6"/><polygon class="cls-7" points="152.49 163.7 152.45 159.6 147.66 159.6 147.64 163.7 152.49 163.7"/><polygon class="cls-6" points="157.33 163.7 157.24 159.6 152.45 159.6 152.49 163.7 157.33 163.7"/><polygon class="cls-6" points="157.33 163.7 162.18 163.7 162.03 159.6 157.24 159.6 157.33 163.7"/><polygon class="cls-5" points="162.03 159.6 162.18 163.7 167.03 163.7 166.83 159.6 162.03 159.6"/><polygon class="cls-5" points="162.18 163.7 162.18 163.7 162.03 159.6 162.03 159.6 162.18 163.7"/><polygon class="cls-5" points="166.83 159.6 167.03 163.7 171.87 163.7 171.62 159.6 166.83 159.6"/><polygon class="cls-5" points="171.87 163.7 176.72 163.7 176.41 159.6 171.62 159.6 171.87 163.7"/><polygon class="cls-5" points="176.72 163.7 181.57 163.7 181.2 159.6 176.41 159.6 176.72 163.7"/><path class="cls-5" d="M181.57,163.7h4.84l-.4-4a.61.61,0,0,1,0-.12H181.2Z"/><path class="cls-5" d="M187.54,163.7c-.5-1.34-1-2.67-1.53-4l.4,4Z"/><path class="cls-8" d="M113.71,163.7h-1.25c-.5,1.36-1,2.73-1.46,4.11h2.31Z"/><polygon class="cls-8" points="113.71 163.7 113.31 167.81 118.21 167.81 118.56 163.7 113.71 163.7"/><polygon class="cls-8" points="118.56 163.7 118.21 167.81 123.11 167.81 123.41 163.7 118.56 163.7"/><polygon class="cls-8" points="123.41 163.7 123.11 167.81 128.01 167.81 128.25 163.7 123.41 163.7"/><polygon class="cls-8" points="133.1 163.7 128.25 163.7 128.01 167.81 132.92 167.81 133.1 163.7"/><polygon class="cls-8" points="137.95 163.7 133.1 163.7 132.92 167.81 137.82 167.81 137.95 163.7"/><polygon class="cls-7" points="142.79 163.7 137.95 163.7 137.82 167.81 142.72 167.81 142.79 163.7"/><polygon class="cls-7" points="147.64 163.7 142.79 163.7 142.72 167.81 147.62 167.81 147.64 163.7"/><polygon class="cls-9" points="152.49 163.7 147.64 163.7 147.62 167.81 152.52 167.81 152.49 163.7"/><polygon class="cls-7" points="152.52 167.81 157.42 167.81 157.33 163.7 152.49 163.7 152.52 167.81"/><polygon class="cls-7" points="157.42 167.81 162.32 167.81 162.18 163.7 157.33 163.7 157.42 167.81"/><polygon class="cls-8" points="162.32 167.81 167.23 167.81 167.03 163.7 162.18 163.7 162.32 167.81"/><polygon class="cls-8" points="162.32 167.81 162.32 167.81 162.18 163.7 162.18 163.7 162.32 167.81"/><polygon class="cls-8" points="167.03 163.7 167.23 167.81 172.13 167.81 171.87 163.7 167.03 163.7"/><polygon class="cls-8" points="171.87 163.7 172.13 167.81 177.03 167.81 176.72 163.7 171.87 163.7"/><polygon class="cls-8" points="177.03 167.81 181.93 167.81 181.57 163.7 176.72 163.7 177.03 167.81"/><polygon class="cls-8" points="186.83 167.81 186.41 163.7 181.57 163.7 181.93 167.81 186.83 167.81"/><path class="cls-8" d="M186.83,167.81H189q-.7-2.07-1.47-4.11h-1.13Z"/><polygon class="cls-5" points="176.52 171.91 176.73 171.91 176.49 171.13 176.52 171.91"/><polygon class="cls-5" points="123.27 171.91 123.49 171.91 123.52 171.13 123.27 171.91"/><path class="cls-5" d="M111,167.81c-.18.52-.36,1-.53,1.56l2.59,1,.25-2.54Z"/><polygon class="cls-5" points="118.21 167.81 113.31 167.81 113.06 170.35 117.2 171.91 117.87 171.91 118.21 167.81"/><polygon class="cls-5" points="117.87 171.91 122.82 171.91 123.11 167.81 118.21 167.81 117.87 171.91"/><polygon class="cls-5" points="128.01 167.81 123.11 167.81 122.82 171.91 123.27 171.91 123.52 171.13 123.49 171.91 127.78 171.91 128.01 167.81"/><polygon class="cls-5" points="132.92 167.81 128.01 167.81 127.78 171.91 132.73 171.91 132.92 167.81"/><polygon class="cls-5" points="137.82 167.81 132.92 167.81 132.73 171.91 137.69 171.91 137.82 167.81"/><polygon class="cls-6" points="142.72 167.81 137.82 167.81 137.69 171.91 142.65 171.91 142.72 167.81"/><polygon class="cls-6" points="147.62 167.81 142.72 167.81 142.65 171.91 147.6 171.91 147.62 167.81"/><polygon class="cls-7" points="152.52 167.81 147.62 167.81 147.6 171.91 152.56 171.91 152.52 167.81"/><polygon class="cls-6" points="152.56 171.91 157.51 171.91 157.42 167.81 152.52 167.81 152.56 171.91"/><polygon class="cls-6" points="157.51 171.91 162.47 171.91 162.32 167.81 157.42 167.81 157.51 171.91"/><polygon class="cls-5" points="162.47 171.91 167.43 171.91 167.23 167.81 162.32 167.81 162.47 171.91"/><polygon class="cls-5" points="162.47 171.91 162.47 171.91 162.32 167.81 162.32 167.81 162.47 171.91"/><polygon class="cls-5" points="167.43 171.91 172.38 171.91 172.13 167.81 167.23 167.81 167.43 171.91"/><polygon class="cls-5" points="177.03 167.81 172.13 167.81 172.38 171.91 176.52 171.91 176.49 171.13 176.73 171.91 177.34 171.91 177.03 167.81"/><polygon class="cls-5" points="177.34 171.91 182.29 171.91 181.93 167.81 177.03 167.81 177.34 171.91"/><polygon class="cls-5" points="181.93 167.81 182.29 171.91 182.81 171.91 187.09 170.3 186.83 167.81 181.93 167.81"/><path class="cls-5" d="M187.09,170.3l2.44-.93c-.17-.52-.35-1-.52-1.56h-2.18Z"/><polygon class="cls-5" points="117.2 171.91 117.84 172.16 117.87 171.91 117.2 171.91"/><polygon class="cls-5" points="117.87 171.91 117.84 172.16 122.64 173.96 122.69 173.8 122.82 171.91 117.87 171.91"/><polygon class="cls-5" points="122.69 173.8 123.27 171.91 122.82 171.91 122.69 173.8"/><polygon class="cls-5" points="127.78 171.91 123.49 171.91 123.33 176.02 127.54 176.02 127.78 171.91"/><polygon class="cls-5" points="132.73 171.91 127.78 171.91 127.54 176.02 132.55 176.02 132.73 171.91"/><polygon class="cls-5" points="137.69 171.91 132.73 171.91 132.55 176.02 137.56 176.02 137.69 171.91"/><polygon class="cls-6" points="142.65 171.91 137.69 171.91 137.56 176.02 142.57 176.02 142.65 171.91"/><polygon class="cls-6" points="147.6 171.91 142.65 171.91 142.57 176.02 147.58 176.02 147.6 171.91"/><polygon class="cls-7" points="152.56 171.91 147.6 171.91 147.58 176.02 152.59 176.02 152.56 171.91"/><polygon class="cls-6" points="152.59 176.02 157.6 176.02 157.51 171.91 152.56 171.91 152.59 176.02"/><polygon class="cls-6" points="157.6 176.02 162.62 176.02 162.47 171.91 157.51 171.91 157.6 176.02"/><polygon class="cls-5" points="162.62 176.02 167.63 176.02 167.43 171.91 162.47 171.91 162.62 176.02"/><polygon class="cls-5" points="162.62 176.02 162.62 176.02 162.47 171.91 162.47 171.91 162.62 176.02"/><polygon class="cls-5" points="167.63 176.02 172.64 176.02 172.38 171.91 167.43 171.91 167.63 176.02"/><polygon class="cls-5" points="176.73 171.91 177.37 173.96 177.49 173.92 177.34 171.91 176.73 171.91"/><polygon class="cls-5" points="172.64 176.02 176.68 176.02 176.52 171.91 172.38 171.91 172.64 176.02"/><polygon class="cls-5" points="177.34 171.91 177.49 173.92 182.31 172.1 182.29 171.91 177.34 171.91"/><polygon class="cls-5" points="182.31 172.1 182.81 171.91 182.29 171.91 182.31 172.1"/><polygon class="cls-8" points="127.54 176.02 123.33 176.02 123.17 180.12 127.3 180.12 127.54 176.02"/><polygon class="cls-8" points="132.55 176.02 127.54 176.02 127.3 180.12 132.37 180.12 132.55 176.02"/><polygon class="cls-8" points="137.56 176.02 132.55 176.02 132.37 180.12 137.43 180.12 137.56 176.02"/><polygon class="cls-7" points="142.57 176.02 137.56 176.02 137.43 180.12 142.5 180.12 142.57 176.02"/><polygon class="cls-7" points="147.58 176.02 142.57 176.02 142.5 180.12 147.56 180.12 147.58 176.02"/><polygon class="cls-9" points="152.59 176.02 147.58 176.02 147.56 180.12 152.63 180.12 152.59 176.02"/><polygon class="cls-7" points="152.63 180.12 157.69 180.12 157.6 176.02 152.59 176.02 152.63 180.12"/><polygon class="cls-7" points="157.69 180.12 162.76 180.12 162.62 176.02 157.6 176.02 157.69 180.12"/><polygon class="cls-8" points="162.76 180.12 167.82 180.12 167.63 176.02 162.62 176.02 162.76 180.12"/><polygon class="cls-8" points="162.76 180.12 162.76 180.12 162.62 176.02 162.62 176.02 162.76 180.12"/><polygon class="cls-8" points="167.82 180.12 172.89 180.12 172.64 176.02 167.63 176.02 167.82 180.12"/><polygon class="cls-8" points="172.89 180.12 176.83 180.12 176.68 176.02 172.64 176.02 172.89 180.12"/><polygon class="cls-5" points="127.3 180.12 123.17 180.12 123.02 184.23 127.07 184.23 127.3 180.12"/><polygon class="cls-5" points="132.37 180.12 127.3 180.12 127.07 184.23 132.19 184.23 132.37 180.12"/><polygon class="cls-5" points="137.43 180.12 132.37 180.12 132.19 184.23 137.31 184.23 137.43 180.12"/><polygon class="cls-6" points="142.5 180.12 137.43 180.12 137.31 184.23 142.43 184.23 142.5 180.12"/><polygon class="cls-6" points="147.56 180.12 142.5 180.12 142.43 184.23 147.55 184.23 147.56 180.12"/><polygon class="cls-7" points="152.63 180.12 147.56 180.12 147.55 184.23 152.66 184.23 152.63 180.12"/><polygon class="cls-6" points="152.66 184.23 157.78 184.23 157.69 180.12 152.63 180.12 152.66 184.23"/><polygon class="cls-6" points="157.78 184.23 162.91 184.23 162.76 180.12 157.69 180.12 157.78 184.23"/><polygon class="cls-5" points="162.91 184.23 168.03 184.23 167.82 180.12 162.76 180.12 162.91 184.23"/><polygon class="cls-5" points="162.91 184.23 162.91 184.23 162.76 180.12 162.76 180.12 162.91 184.23"/><polygon class="cls-5" points="168.03 184.23 173.14 184.23 172.89 180.12 167.82 180.12 168.03 184.23"/><polygon class="cls-5" points="173.14 184.23 176.99 184.23 176.83 180.12 172.89 180.12 173.14 184.23"/><polygon class="cls-5" points="127.07 184.23 123.02 184.23 122.86 188.33 126.83 188.33 127.07 184.23"/><polygon class="cls-5" points="132.19 184.23 127.07 184.23 126.83 188.33 132 188.33 132.19 184.23"/><polygon class="cls-5" points="137.31 184.23 132.19 184.23 132 188.33 137.18 188.33 137.31 184.23"/><polygon class="cls-6" points="142.43 184.23 137.31 184.23 137.18 188.33 142.35 188.33 142.43 184.23"/><polygon class="cls-6" points="147.55 184.23 142.43 184.23 142.35 188.33 147.53 188.33 147.55 184.23"/><polygon class="cls-7" points="152.66 184.23 147.55 184.23 147.53 188.33 152.7 188.33 152.66 184.23"/><polygon class="cls-6" points="152.7 188.33 157.88 188.33 157.78 184.23 152.66 184.23 152.7 188.33"/><polygon class="cls-6" points="157.88 188.33 163.05 188.33 162.91 184.23 157.78 184.23 157.88 188.33"/><polygon class="cls-5" points="163.05 188.33 168.22 188.33 168.03 184.23 162.91 184.23 163.05 188.33"/><polygon class="cls-5" points="163.05 188.33 163.05 188.33 162.91 184.23 162.91 184.23 163.05 188.33"/><polygon class="cls-5" points="168.22 188.33 173.4 188.33 173.14 184.23 168.03 184.23 168.22 188.33"/><polygon class="cls-5" points="173.4 188.33 177.15 188.33 176.99 184.23 173.14 184.23 173.4 188.33"/><polygon class="cls-8" points="126.83 188.33 122.86 188.33 122.7 192.44 126.59 192.44 126.83 188.33"/><polygon class="cls-8" points="132 188.33 126.83 188.33 126.59 192.44 131.82 192.44 132 188.33"/><polygon class="cls-8" points="137.18 188.33 132 188.33 131.82 192.44 137.05 192.44 137.18 188.33"/><polygon class="cls-7" points="142.35 188.33 137.18 188.33 137.05 192.44 142.28 192.44 142.35 188.33"/><polygon class="cls-7" points="147.53 188.33 142.35 188.33 142.28 192.44 147.51 192.44 147.53 188.33"/><polygon class="cls-9" points="152.7 188.33 147.53 188.33 147.51 192.44 152.74 192.44 152.7 188.33"/><polygon class="cls-7" points="152.74 192.44 157.97 192.44 157.88 188.33 152.7 188.33 152.74 192.44"/><polygon class="cls-7" points="157.97 192.44 163.19 192.44 163.05 188.33 157.88 188.33 157.97 192.44"/><polygon class="cls-8" points="163.19 192.44 168.42 192.44 168.22 188.33 163.05 188.33 163.19 192.44"/><polygon class="cls-8" points="163.19 192.44 163.19 192.44 163.05 188.33 163.05 188.33 163.19 192.44"/><polygon class="cls-8" points="168.42 192.44 173.65 192.44 173.4 188.33 168.22 188.33 168.42 192.44"/><polygon class="cls-8" points="173.65 192.44 177.3 192.44 177.15 188.33 173.4 188.33 173.65 192.44"/><polygon class="cls-5" points="126.59 192.44 122.7 192.44 122.55 196.54 126.36 196.54 126.59 192.44"/><polygon class="cls-5" points="131.82 192.44 126.59 192.44 126.36 196.54 131.64 196.54 131.82 192.44"/><polygon class="cls-5" points="137.05 192.44 131.82 192.44 131.64 196.54 136.92 196.54 137.05 192.44"/><polygon class="cls-6" points="142.28 192.44 137.05 192.44 136.92 196.54 142.21 196.54 142.28 192.44"/><polygon class="cls-6" points="147.51 192.44 142.28 192.44 142.21 196.54 147.49 196.54 147.51 192.44"/><polygon class="cls-7" points="147.51 192.44 147.49 196.54 152.77 196.54 152.74 192.44 147.51 192.44"/><polygon class="cls-6" points="152.77 196.54 158.06 196.54 157.97 192.44 152.74 192.44 152.77 196.54"/><polygon class="cls-6" points="158.06 196.54 163.34 196.54 163.19 192.44 157.97 192.44 158.06 196.54"/><polygon class="cls-5" points="163.34 196.54 168.62 196.54 168.42 192.44 163.19 192.44 163.34 196.54"/><polygon class="cls-5" points="163.34 196.54 163.34 196.54 163.19 192.44 163.19 192.44 163.34 196.54"/><polygon class="cls-5" points="168.62 196.54 173.91 196.54 173.65 192.44 168.42 192.44 168.62 196.54"/><polygon class="cls-5" points="173.91 196.54 177.46 196.54 177.3 192.44 173.65 192.44 173.91 196.54"/><polygon class="cls-5" points="126.36 196.54 122.55 196.54 122.39 200.65 126.12 200.65 126.36 196.54"/><polygon class="cls-5" points="131.64 196.54 126.36 196.54 126.12 200.65 131.46 200.65 131.64 196.54"/><polygon class="cls-5" points="136.92 196.54 131.64 196.54 131.46 200.65 136.79 200.65 136.92 196.54"/><polygon class="cls-6" points="142.21 196.54 136.92 196.54 136.79 200.65 142.13 200.65 142.21 196.54"/><polygon class="cls-6" points="142.21 196.54 142.13 200.65 147.47 200.65 147.49 196.54 142.21 196.54"/><polygon class="cls-7" points="147.49 196.54 147.47 200.65 152.81 200.65 152.77 196.54 147.49 196.54"/><polygon class="cls-6" points="152.77 196.54 152.81 200.65 158.15 200.65 158.06 196.54 152.77 196.54"/><polygon class="cls-6" points="158.15 200.65 163.49 200.65 163.34 196.54 158.06 196.54 158.15 200.65"/><polygon class="cls-5" points="163.49 200.65 168.82 200.65 168.62 196.54 163.34 196.54 163.49 200.65"/><polygon class="cls-5" points="163.49 200.65 163.49 200.65 163.34 196.54 163.34 196.54 163.49 200.65"/><polygon class="cls-5" points="168.82 200.65 174.16 200.65 173.91 196.54 168.62 196.54 168.82 200.65"/><polygon class="cls-5" points="174.16 200.65 177.62 200.65 177.46 196.54 173.91 196.54 174.16 200.65"/><polygon class="cls-8" points="126.12 200.65 122.39 200.65 122.23 204.75 125.88 204.75 126.12 200.65"/><polygon class="cls-8" points="131.46 200.65 126.12 200.65 125.88 204.75 131.28 204.75 131.46 200.65"/><polygon class="cls-8" points="136.79 200.65 131.46 200.65 131.28 204.75 136.67 204.75 136.79 200.65"/><polygon class="cls-7" points="136.79 200.65 136.67 204.75 142.06 204.75 142.13 200.65 136.79 200.65"/><polygon class="cls-7" points="142.13 200.65 142.06 204.75 147.45 204.75 147.47 200.65 142.13 200.65"/><polygon class="cls-9" points="147.47 200.65 147.45 204.75 152.84 204.75 152.81 200.65 147.47 200.65"/><polygon class="cls-7" points="152.81 200.65 152.84 204.75 158.24 204.75 158.15 200.65 152.81 200.65"/><polygon class="cls-7" points="163.49 200.65 158.15 200.65 158.24 204.75 163.63 204.75 163.49 200.65"/><polygon class="cls-8" points="163.63 204.75 169.02 204.75 168.82 200.65 163.49 200.65 163.63 204.75"/><polygon class="cls-8" points="163.63 204.75 163.63 204.75 163.49 200.65 163.49 200.65 163.63 204.75"/><polygon class="cls-8" points="169.02 204.75 174.41 204.75 174.16 200.65 168.82 200.65 169.02 204.75"/><polygon class="cls-8" points="174.41 204.75 177.77 204.75 177.62 200.65 174.16 200.65 174.41 204.75"/><polygon class="cls-5" points="125.88 204.75 122.23 204.75 122.08 208.86 125.64 208.86 125.88 204.75"/><polygon class="cls-5" points="131.28 204.75 125.88 204.75 125.64 208.86 131.09 208.86 131.28 204.75"/><polygon class="cls-5" points="136.67 204.75 131.28 204.75 131.09 208.86 136.54 208.86 136.67 204.75"/><polygon class="cls-6" points="136.67 204.75 136.54 208.86 141.99 208.86 142.06 204.75 136.67 204.75"/><polygon class="cls-6" points="142.06 204.75 141.99 208.86 147.43 208.86 147.45 204.75 142.06 204.75"/><polygon class="cls-7" points="147.45 204.75 147.43 208.86 149.51 208.86 150 208 150.5 208.86 152.88 208.86 152.84 204.75 147.45 204.75"/><polygon class="cls-6" points="158.24 204.75 152.84 204.75 152.88 208.86 158.33 208.86 158.24 204.75"/><polygon class="cls-6" points="158.24 204.75 158.33 208.86 163.78 208.86 163.63 204.75 158.24 204.75"/><polygon class="cls-5" points="163.78 208.86 169.22 208.86 169.02 204.75 163.63 204.75 163.78 208.86"/><polygon class="cls-5" points="163.78 208.86 163.78 208.86 163.63 204.75 163.63 204.75 163.78 208.86"/><polygon class="cls-5" points="169.22 208.86 174.67 208.86 174.41 204.75 169.02 204.75 169.22 208.86"/><polygon class="cls-5" points="174.67 208.86 177.93 208.86 177.77 204.75 174.41 204.75 174.67 208.86"/><polygon class="cls-5" points="125.64 208.86 122.08 208.86 121.92 212.96 125.41 212.96 125.64 208.86"/><polygon class="cls-5" points="131.09 208.86 125.64 208.86 125.41 212.96 130.91 212.96 131.09 208.86"/><polygon class="cls-5" points="131.09 208.86 130.91 212.96 136.41 212.96 136.54 208.86 131.09 208.86"/><polygon class="cls-6" points="136.41 212.96 141.91 212.96 141.99 208.86 136.54 208.86 136.41 212.96"/><polygon class="cls-6" points="147.43 208.86 141.99 208.86 141.91 212.96 147.14 212.96 147.42 212.49 147.43 208.86"/><polygon class="cls-7" points="147.42 212.49 149.51 208.86 147.43 208.86 147.42 212.49"/><polygon class="cls-7" points="152.88 208.86 150.5 208.86 152.87 212.96 152.92 212.96 152.88 208.86"/><polygon class="cls-6" points="152.88 208.86 152.92 212.96 158.42 212.96 158.33 208.86 152.88 208.86"/><polygon class="cls-6" points="158.33 208.86 158.42 212.96 163.92 212.96 163.78 208.86 158.33 208.86"/><polygon class="cls-5" points="163.92 212.96 169.42 212.96 169.22 208.86 163.78 208.86 163.92 212.96"/><polygon class="cls-5" points="163.78 208.86 163.92 212.96 163.92 212.96 163.78 208.86 163.78 208.86"/><polygon class="cls-5" points="169.42 212.96 174.92 212.96 174.67 208.86 169.22 208.86 169.42 212.96"/><polygon class="cls-5" points="174.92 212.96 178.09 212.96 177.93 208.86 174.67 208.86 174.92 212.96"/><polygon class="cls-5" points="125.41 212.96 121.92 212.96 121.76 217.07 123.89 217.07 125.18 216.95 125.41 212.96"/><polygon class="cls-5" points="125.41 212.96 125.18 216.95 130.75 216.44 130.91 212.96 125.41 212.96"/><polygon class="cls-5" points="130.91 212.96 130.75 216.44 136.32 215.93 136.41 212.96 130.91 212.96"/><polygon class="cls-7" points="136.41 212.96 136.32 215.93 141.87 215.42 141.91 212.96 136.41 212.96"/><polygon class="cls-7" points="141.87 215.42 145.94 215.05 147.14 212.96 141.91 212.96 141.87 215.42"/><polygon class="cls-5" points="152.87 212.96 152.92 213.05 152.92 212.96 152.87 212.96"/><polygon class="cls-7" points="152.92 212.96 152.92 213.05 154.07 215.05 158.47 215.45 158.42 212.96 152.92 212.96"/><polygon class="cls-7" points="158.42 212.96 158.47 215.45 164.03 215.96 163.92 212.96 158.42 212.96"/><polygon class="cls-5" points="163.92 212.96 164.03 215.96 169.59 216.47 169.42 212.96 163.92 212.96"/><polygon class="cls-5" points="163.92 212.96 164.03 215.96 164.03 215.96 163.92 212.96 163.92 212.96"/><polygon class="cls-5" points="169.59 216.47 175.17 216.98 174.92 212.96 169.42 212.96 169.59 216.47"/><polygon class="cls-5" points="175.17 216.98 176.12 217.07 178.24 217.07 178.09 212.96 174.92 212.96 175.17 216.98"/><polygon class="cls-5" points="121.76 217.26 123.89 217.07 121.76 217.07 121.76 217.26"/><polygon class="cls-5" points="178.25 217.26 178.24 217.07 176.12 217.07 178.25 217.26"/><path class="cls-2" d="M195.87,196.15l-10.58-34.38L176,164.62l11.12,36.14h0c-.09,1.74.23,4,2.11,5.14,3.39,2.11,2.3-1.83,2.3-1.83s6.14,2.43,10.55-2.21C205.46,198.32,199.1,196.71,195.87,196.15Z"/><path class="cls-2" d="M104.13,196.15l10.58-34.38,9.28,2.85-11.12,36.14h0c.09,1.74-.23,4-2.11,5.14-3.39,2.11-2.3-1.83-2.3-1.83s-6.14,2.43-10.55-2.21C94.54,198.32,100.9,196.71,104.13,196.15Z"/><path class="cls-2" d="M195.14,87.36A45.14,45.14,0,1,1,150,42.21,45.14,45.14,0,0,1,195.14,87.36Z"/><path class="cls-4" d="M134.76,89.12a6.48,6.48,0,1,1-6.47-6.48A6.47,6.47,0,0,1,134.76,89.12Z"/><path class="cls-4" d="M178.19,89.12a6.48,6.48,0,1,1-6.48-6.48A6.48,6.48,0,0,1,178.19,89.12Z"/><path class="cls-1" d="M165.24,62C189,74.71,186.65,79.12,186.9,118.84c0,0,33.32-63.77-21.66-81.51-30.66-9.89-43.43,15-43.43,15S154.42,56.15,165.24,62Z"/><path class="cls-1" d="M159.09,59.05s-39.59,5-42.52,20.07-2.42,36.2,5.24,44.12c0,0-31.33-23.17-14.62-59.82s54.88-27,54.88-27S172.29,48.2,159.09,59.05Z"/><path class="cls-1" d="M178.33,82.09a8.88,8.88,0,0,0-3.55-2.93,13.07,13.07,0,0,0-9.54,0c-1.75.75-.67,1.56,0,1.67,1.08.19,4.13-1.79,9.25-.61A14.88,14.88,0,0,1,178.33,82.09Z"/><path class="cls-1" d="M121.67,82.09a8.88,8.88,0,0,1,3.55-2.93,13.07,13.07,0,0,1,9.54,0c1.75.75.67,1.56,0,1.67-1.08.19-4.13-1.79-9.25-.61A14.88,14.88,0,0,0,121.67,82.09Z"/><path class="cls-10" d="M150.5,54.59c3.57,0,6.52,1.46,7,4.89a6.81,6.81,0,0,0,.07-1c0-3.91-3.17-6.5-7.08-6.5s-7.09,2.59-7.09,6.5a6.8,6.8,0,0,0,.08,1C144,56.05,146.93,54.59,150.5,54.59Z"/><path class="cls-11" d="M169.84,67.08c-6.32,0-11.36-2.86-13.83-7.84-1.85-3.71-1.84-8,0-10.46,2.8-3.69,9-5,13.81-5s11,1.31,13.81,5c1.86,2.45,1.87,6.75,0,10.46C181.2,64.22,176.16,67.08,169.84,67.08Z"/><path class="cls-12" d="M157.18,49.65c4.48-5.91,20.85-5.91,25.32,0,3.1,4.09,0,16-12.66,16S154.08,53.74,157.18,49.65Z"/><path class="cls-11" d="M131.16,67.08c6.31,0,11.36-2.86,13.83-7.84,1.84-3.71,1.83-8,0-10.46-2.79-3.69-9-5-13.81-5s-11,1.31-13.8,5c-1.86,2.45-1.87,6.75,0,10.46C119.79,64.22,124.84,67.08,131.16,67.08Z"/><path class="cls-12" d="M143.81,49.65c-4.47-5.91-20.84-5.91-25.32,0-3.1,4.09,0,16,12.67,16S146.91,53.74,143.81,49.65Z"/><path class="cls-4" d="M198.08,193.81s-12.39-50.38-24.72-55.31c0,0-9.54-1.18-12.16-.92l-1.84,17,2.54,64.46,19.47,1.63-4.88-49.57,8.79,28.54Z"/><path class="cls-4" d="M101.92,193.81s12.39-50.38,24.72-55.31c0,0,9.54-1.18,12.17-.92l1.83,17-2.54,64.46-19.47,1.63,4.89-49.57-8.8,28.54Z"/><line class="cls-13" x1="161.9" y1="219.07" x2="159.41" y2="155.01"/><line class="cls-13" x1="138.1" y1="219.07" x2="140.6" y2="155.01"/><path class="cls-1" d="M117.61,135.73s6,3.36,5.52,7.63,5.56,6.59,7.63,7.23c0,0-3.13-5-1.19-6.54,5.35-4.16-3.83-14.42-3.83-14.42"/><polygon class="cls-14" points="100.63 194 115.5 201.04 117.61 195.17 101.92 188.33 100.63 194"/><polygon class="cls-14" points="199.38 194 184.51 201.04 182.39 195.17 198.08 188.33 199.38 194"/><circle class="cls-15" cx="113.1" cy="196.54" r="1.61"/><circle class="cls-15" cx="186.9" cy="196.54" r="1.61"/><polygon class="cls-14" points="180.77 211.08 167.69 209.54 167.69 214.13 181.3 215.49 180.77 211.08"/><circle class="cls-15" cx="169.99" cy="212.03" r="1.27"/><polygon class="cls-4" points="174.34 208.93 174.76 215.27 172.55 215.13 172.25 208.79 174.34 208.93"/><polygon class="cls-14" points="119.23 211.08 132.31 209.54 132.31 214.13 118.7 215.49 119.23 211.08"/><circle class="cls-15" cx="130.02" cy="212.03" r="1.27"/><polygon class="cls-4" points="125.67 208.93 125.24 215.27 127.45 215.13 127.75 208.79 125.67 208.93"/><rect class="cls-2" x="142.79" y="123.33" width="14.42" height="16.49"/><path class="cls-16" d="M137.93,112.7h24.14s0,11.56-12.07,11.56S137.93,112.7,137.93,112.7Z"/><polygon class="cls-17" points="150 148.89 159.59 137.31 164.88 137.31 155.96 152.07 150 148.89"/><polygon class="cls-17" points="150 148.89 140.41 137.31 135.13 137.31 144.05 152.07 150 148.89"/><polygon class="cls-14" points="157.74 156.8 168.45 150.62 165.79 147.38 174.54 144.05 167.25 135.91 161.14 136.73 157.74 156.8"/><path class="cls-1" d="M169.9,131.93s-6.55,7.77-1.14,11.27-.5,4.2-.5,4.2,7.32,1.83,7.89-3.25-1.42-3.65,2.69-7c4.32-3.51,3.57-4.71,3.57-4.71"/><polygon class="cls-14" points="142.26 156.8 131.55 150.62 134.22 147.38 125.47 144.05 132.76 135.91 138.86 136.73 142.26 156.8"/><path class="cls-1" d="M127.63,143.19s3.23-2.05,2.39-4.55a3.71,3.71,0,0,0-3.63-2.51s1.39-3.47,8.13-4.55C134.52,131.58,141,141.06,127.63,143.19Z"/><polygon class="cls-18" points="150 148.89 144.05 152.07 150 151.39 150 148.89"/><polygon class="cls-18" points="155.96 152.07 150 151.39 150 148.89 155.96 152.07"/></svg>