<svg id="Layer_1" data-name="Layer 1" xmlns="http://www.w3.org/2000/svg" viewBox="0 0 300 300"><defs><style>.cls-1{fill:#e6e7e8;}.cls-2{fill:#b08874;}.cls-3{fill:#f1f2f2;}.cls-4{fill:#fff;}.cls-5,.cls-8{fill:#d1d3d4;}.cls-6{fill:#ec008c;}.cls-7{fill:#a7a9ac;}.cls-8{opacity:0.5;}.cls-9{fill:#231f20;}.cls-10{fill:#db9c94;}</style></defs><title>Artboard 15</title><polygon class="cls-1" points="176.91 211.65 122.99 211.65 121.81 257.83 142.44 257.83 147.25 230.89 152.1 230.88 157.46 257.83 178.09 257.83 176.91 211.65"/><path class="cls-2" d="M150,138.63a93.3,93.3,0,0,1-19.62-2.08L150,167.37l19.67-30.82A93.3,93.3,0,0,1,150,138.63Z"/><path class="cls-3" d="M149.68,213.6l2.32,7.3,27.44.08-9.82-84.43c-2.05.44-4.11.81-6.2,1.11,0,.32-13.42,18-13.42,18l-13.42-18s-4.16-.67-6.2-1.11l-9.93,84.25,26.88.18Z"/><polygon class="cls-4" points="136.81 132.75 130.38 136.07 130.97 145.02 141.7 147.33 139.6 150.46 150 155.61 136.81 132.75"/><polygon class="cls-4" points="163.19 132.75 169.62 136.07 169.03 145.02 158.3 147.33 160.4 150.46 150 155.61 163.19 132.75"/><path class="cls-2" d="M123,144.76l-7.54,21.85h0l-3,8.88v0h0l-9.26,27c-3.43.49-10.19,2-6.76,5.81,4.5,5,11.05,2.68,11.05,2.68s-1.28,4.12,2.36,2c2-1.17,2.43-3.51,2.4-5.35h0l11.62-33.87h0l11.42-29.72,7.13-4.27C125.24,136.87,123,144.76,123,144.76Z"/><path class="cls-2" d="M177,144.76l7.54,21.85h0l3,8.88v0h0l9.26,27c3.43.49,10.19,2,6.76,5.81-4.5,5-11.05,2.68-11.05,2.68s1.28,4.12-2.36,2c-2-1.17-2.43-3.51-2.4-5.35h0l-11.62-33.87h0l-11.42-29.72-7.13-4.27C174.76,136.87,177,144.76,177,144.76Z"/><path class="cls-4" d="M100.84,197.59l15.53,6.35,7.08-27.56-7.08,70.51L145.06,249l3.13-82.68-14.32-28.75s-11.42-3.29-15,8.33S100.84,197.59,100.84,197.59Z"/><polygon class="cls-4" points="131.91 133.75 124.06 138.04 124.66 146.99 135.39 149.3 133.29 152.43 148.19 166.28 131.91 133.75"/><polygon class="cls-5" points="124.66 146.99 134.28 150.96 135.39 149.3 124.66 146.99"/><path class="cls-4" d="M199.16,197.59l-15.53,6.35-7.08-27.56,7.08,70.51L154.94,249l-3.13-82.68,14.32-28.75s11.42-3.29,15,8.33S199.16,197.59,199.16,197.59Z"/><polygon class="cls-4" points="168.09 133.75 175.94 138.04 175.34 146.99 164.61 149.3 166.71 152.43 151.81 166.28 168.09 133.75"/><polygon class="cls-5" points="175.34 146.99 165.72 150.96 164.61 149.3 175.34 146.99"/><polygon class="cls-5" points="175.34 146.99 165.72 150.96 164.61 149.3 175.34 146.99"/><polygon class="cls-3" points="113.56 265 142.37 265 142.44 256.77 121.82 256.77 113.56 265"/><polygon class="cls-3" points="186.25 265 157.44 265 157.36 256.77 177.99 256.77 186.25 265"/><polygon class="cls-6" points="164.16 181.27 162.19 180 160.89 157.84 162.93 155.94 164.16 181.27"/><circle class="cls-7" cx="163.32" cy="179.99" r="3.61"/><circle class="cls-5" cx="163.32" cy="179.99" r="2.9"/><polygon class="cls-8" points="166.71 152.43 151.79 168.46 151.81 166.28 166.71 152.43"/><path class="cls-7" d="M136,194.73a4.65,4.65,0,0,1-.82-.08l.25-1.11a2.77,2.77,0,0,0,2.22-.51c4-2.89,3.85-15.08,3.85-15.2l1.29,0c0,.53.1,12.86-4.32,16.1A4.12,4.12,0,0,1,136,194.73Z"/><path class="cls-7" d="M134.6,194.63a5.27,5.27,0,0,0,.81.1v-1.14a2.79,2.79,0,0,1-2.07-1c-3.29-3.64-.7-15.56-.67-15.68l-1.26-.27c-.11.51-2.73,12.56.94,16.63A4.05,4.05,0,0,0,134.6,194.63Z"/><path class="cls-6" d="M142,172.44a5.75,5.75,0,0,0-3.38-3l.67-11.47-2-1.85-.7,13.2c-2.92.49-5.35,3.78-5.75,8.09l2.06.19c.33-3.6,2.48-6.47,4.68-6.26a3.45,3.45,0,0,1,2.58,2,8.94,8.94,0,0,1,.87,5l2.06.19A11,11,0,0,0,142,172.44Z"/><path class="cls-5" d="M134.44,195.06c-.47-.05-.24-2.08.23-2a1,1,0,0,1,.74,1.12A1,1,0,0,1,134.44,195.06Z"/><path class="cls-5" d="M136,193.25c.47.06.24,2.09-.23,2a1,1,0,0,1,.23-2Z"/><polygon class="cls-8" points="133.29 152.43 148.21 168.46 148.19 166.28 133.29 152.43"/><rect class="cls-2" x="142.34" y="125.04" width="15.22" height="17.4"/><path class="cls-9" d="M119.33,106.55s-4.27,16.21-1.78,23.23,8.49,9.15,5.13,19.92,2.37,13.13,2.37,13.13,3.7,3.58,1.67,7.56c0,0,9.91-3,7.51-14.68-2-9.82,4.27-12.52,4.27-12.52s8.21-4.15,1.88-14.53Z"/><path class="cls-9" d="M175.84,103.84s5.8,15.73,4,23-7.57,9.92-3.2,20.32-1.11,13.3-1.11,13.3-3.33,3.92-.93,7.69c0,0-10.16-2.07-8.88-13.9,1.08-10-5.45-12-5.45-12s-8.57-3.34-3.26-14.29Z"/><path class="cls-2" d="M197.58,87.09A47.63,47.63,0,1,1,150,39.45,47.63,47.63,0,0,1,197.58,87.09Z"/><path class="cls-9" d="M133.87,88.12A6.83,6.83,0,1,1,127,81.29,6.83,6.83,0,0,1,133.87,88.12Z"/><path class="cls-9" d="M179.69,88.12a6.84,6.84,0,1,1-6.83-6.83A6.83,6.83,0,0,1,179.69,88.12Z"/><path class="cls-10" d="M137.22,113.83h25.46S162.68,126,150,126,137.22,113.83,137.22,113.83Z"/><path class="cls-9" d="M117.91,78.24a3.71,3.71,0,0,1,.32-.66,8.56,8.56,0,0,1,2.19-2.39,8,8,0,0,1,1.25-.78,8.76,8.76,0,0,1,1.47-.62,9.91,9.91,0,0,1,1.61-.38c.55-.08,1.1-.08,1.65-.11s1.07.11,1.57.17,1,.24,1.42.37a9,9,0,0,1,1.2.5,8,8,0,0,1,1.65,1c.37.28.57.45.57.45s-.28,0-.73-.07l-.8-.11c-.3-.07-.65-.08-1-.13s-.77-.09-1.18-.13-.86,0-1.3-.07-.9,0-1.36,0-.92.07-1.37.15-.92.13-1.36.26l-.66.16-.64.2c-.42.13-.81.3-1.2.44s-.74.32-1.07.49A20.94,20.94,0,0,0,117.91,78.24Z"/><path class="cls-9" d="M182,78.24A21.86,21.86,0,0,0,179.79,77c-.32-.17-.7-.31-1.06-.49s-.79-.31-1.21-.44l-.63-.2-.66-.16c-.44-.13-.91-.17-1.36-.26s-.92-.08-1.38-.15-.91,0-1.36,0-.87.06-1.29.07-.81.11-1.18.13-.72.06-1,.13l-.8.11c-.46.06-.73.07-.73.07s.2-.17.57-.45a7.92,7.92,0,0,1,1.64-1,10.32,10.32,0,0,1,1.2-.5c.45-.13.92-.27,1.42-.37s1-.14,1.58-.17,1.1,0,1.64.11a9.44,9.44,0,0,1,1.61.38,8.42,8.42,0,0,1,1.47.62,8.66,8.66,0,0,1,1.26.78,7.74,7.74,0,0,1,1,.86,7.37,7.37,0,0,1,1.2,1.53A4.92,4.92,0,0,1,182,78.24Z"/><path class="cls-9" d="M156.61,58.9l6.47-23.32s33.55,4.3,33.55,42C196.63,77.56,186,72.6,156.61,58.9Z"/><path class="cls-9" d="M102.32,83.65s9.05-24.55,54.29-24.75l6.47-23.32S102.09,26.12,102.32,83.65Z"/></svg>