<svg id="Layer_1" data-name="Layer 1" xmlns="http://www.w3.org/2000/svg" viewBox="0 0 300 300"><defs><style>.cls-1{fill:#250a15;}.cls-2{fill:#f0d0b4;}.cls-3,.cls-7{fill:#231f20;}.cls-4{fill:#d3445c;}.cls-5{fill:#160002;}.cls-6{fill:#fff;}.cls-7{opacity:0.4;}</style></defs><title>Artboard 16</title><path class="cls-1" d="M196.54,158.43S162.39,153,150,153c-11.59,0-49.4,5.47-49.4,5.47V80.37l95.94-4.24Z"/><rect class="cls-2" x="142.57" y="125.25" width="14.87" height="17"/><path class="cls-2" d="M197.29,200.31l-10.91-35.44-9.57,2.95,11.46,37.24h0c-.09,1.79.23,4.08,2.18,5.29,3.48,2.18,2.36-1.88,2.36-1.88s6.33,2.5,10.88-2.28C207.17,202.56,200.62,200.9,197.29,200.31Z"/><path class="cls-2" d="M102.71,200.31l10.91-35.44,9.57,2.95-11.46,37.24h0c.09,1.79-.23,4.08-2.18,5.29-3.48,2.18-2.36-1.88-2.36-1.88s-6.33,2.5-10.88-2.28C92.83,202.56,99.38,200.9,102.71,200.31Z"/><path class="cls-2" d="M196.54,88.17A46.54,46.54,0,1,1,150,41.63,46.54,46.54,0,0,1,196.54,88.17Z"/><path class="cls-3" d="M134.29,90a6.68,6.68,0,1,1-6.67-6.67A6.67,6.67,0,0,1,134.29,90Z"/><path class="cls-3" d="M179.06,90a6.68,6.68,0,1,1-6.68-6.67A6.68,6.68,0,0,1,179.06,90Z"/><path class="cls-4" d="M137.56,114.29h24.88s0,11.92-12.44,11.92S137.56,114.29,137.56,114.29Z"/><path class="cls-1" d="M184.46,50.8c-1.74-6.59-21.59-15-36.52-15.6-28.12-1.08-47.75,20.13-47.34,48.17C100.6,83.37,189,68,184.46,50.8Z"/><path class="cls-1" d="M174,62.74s20.16,23.55,20.16,45.79c0,0,19.27-73.53-40.75-73.53C115.74,35,174,62.74,174,62.74Z"/><path class="cls-5" d="M118.7,83.37a3.77,3.77,0,0,1,.31-.65,7,7,0,0,1,1.17-1.5,8.26,8.26,0,0,1,1-.84,8.68,8.68,0,0,1,1.22-.76,8,8,0,0,1,1.44-.6,9.22,9.22,0,0,1,1.57-.38,14.65,14.65,0,0,1,1.61-.1c.53,0,1,.11,1.54.16s.95.24,1.39.37a9.81,9.81,0,0,1,1.17.48,8.39,8.39,0,0,1,1.61,1c.36.27.55.44.55.44s-.26,0-.71-.07l-.78-.11c-.29-.06-.64-.08-1-.12s-.75-.09-1.15-.13-.83,0-1.26-.07-.88,0-1.33,0-.9.07-1.35.15a11.39,11.39,0,0,0-1.32.25l-.65.15-.62.2c-.41.13-.8.3-1.18.43s-.72.31-1,.48A20.54,20.54,0,0,0,118.7,83.37Z"/><path class="cls-5" d="M181.32,83.37a20.54,20.54,0,0,0-2.16-1.21c-.32-.17-.69-.3-1-.48s-.77-.3-1.18-.43l-.62-.2-.65-.15a11.81,11.81,0,0,0-1.32-.25c-.45-.08-.9-.08-1.35-.15s-.89,0-1.33,0-.85.06-1.26.07-.79.1-1.15.13-.71.06-1,.12l-.78.11c-.45.06-.71.07-.71.07s.19-.17.55-.44a8.08,8.08,0,0,1,1.61-1,9.17,9.17,0,0,1,1.17-.48c.44-.13.9-.27,1.39-.37s1-.13,1.54-.16a14.65,14.65,0,0,1,1.61.1,9.22,9.22,0,0,1,1.57.38,7.57,7.57,0,0,1,1.43.6,8.53,8.53,0,0,1,2.2,1.6,7,7,0,0,1,1.17,1.5A3.77,3.77,0,0,1,181.32,83.37Z"/><path class="cls-2" d="M171.31,142.25c-4.75-1.19-14.74-3.72-21.31-3.72s-16.56,2.53-21.31,3.72c-11.33,2.85-16.73,28-16.73,28l11.23-2.43.41,46.32,26.4.08,26.4-.08.41-46.32L188,170.25S182.64,145.1,171.31,142.25Z"/><path class="cls-2" d="M138.08,263h4.51l0-4.93A58.13,58.13,0,0,1,138.08,263Z"/><path class="cls-2" d="M132.08,263c-.73-.46-1.45-.94-2.19-1.43a41.64,41.64,0,0,0-8.08-4.47l-1.24,1.27,2.18,4.63Z"/><polygon class="cls-2" points="116.07 263 119.41 263 118.32 260.68 116.07 263"/><path d="M142.64,258.07l0-3.11h-1.09a49,49,0,0,1-6.19,6.84c-1.33-.73-2.64-1.59-4-2.5a48.71,48.71,0,0,0-7.62-4.34h-1.25l-.82.81-1,1-.65.65-2.28,2.26L114.45,263l-2.22,2h30.36v-2h-4.51A58.13,58.13,0,0,0,142.64,258.07ZM116.07,263l2.25-2.32,1.09,2.32Zm6.68,0-2.18-4.63,1.24-1.27a41.64,41.64,0,0,1,8.08,4.47c.74.49,1.46,1,2.19,1.43Z"/><path class="cls-3" d="M115.93,257.37a2.84,2.84,0,0,0,1.28-2.79,1.51,1.51,0,0,1,1.58-.25,1.36,1.36,0,0,1,2.58-.24,1.48,1.48,0,0,1,1.59,0,1.52,1.52,0,0,1,.53,1.51,2.51,2.51,0,0,1-.4,4.83,1.35,1.35,0,0,1-2.33,1.11,1.36,1.36,0,0,1-2.5-.65,1.36,1.36,0,0,1-1.5-2.11A1.52,1.52,0,0,1,115.93,257.37Z"/><path class="cls-2" d="M161.92,263h-4.51l0-4.93A56.53,56.53,0,0,0,161.92,263Z"/><path class="cls-2" d="M177.49,255l-1.15-42.18H123.66L122.51,255h1.29a47.54,47.54,0,0,1,7.59,4.32c1.36.91,2.67,1.77,4,2.5a50.57,50.57,0,0,0,6.18-6.82h1.09l4.7-26.32h4.74L157.34,255h1.09a50.52,50.52,0,0,0,6.17,6.82c1.33-.73,2.64-1.59,4-2.5A47.54,47.54,0,0,1,176.2,255Z"/><path class="cls-2" d="M167.92,263c.72-.46,1.45-.94,2.19-1.43a41.35,41.35,0,0,1,8.08-4.47l1.24,1.27L177.25,263Z"/><polygon class="cls-2" points="183.93 263 180.59 263 181.68 260.68 183.93 263"/><path d="M161.92,263h-4.51v2h30.36l-2.22-2-3.38-3.37-2.27-2.26-.65-.65-.95-1-.82-.81h-1.25a48.71,48.71,0,0,0-7.62,4.34c-1.37.91-2.68,1.77-4,2.5a50.22,50.22,0,0,1-6.19-6.84h-1.08l0,3.11A56.53,56.53,0,0,0,161.92,263Zm18.67,0,1.09-2.32,2.25,2.32Zm-12.67,0c.72-.46,1.45-.94,2.19-1.43a41.35,41.35,0,0,1,8.08-4.47l1.24,1.27L177.25,263Z"/><path class="cls-3" d="M184.07,257.37a1.54,1.54,0,0,0-1-1.21,1.51,1.51,0,0,0-.24-1.58,1.49,1.49,0,0,0-1.57-.25,1.36,1.36,0,0,0-2.58-.24,1.5,1.5,0,0,0-1.6,0,1.52,1.52,0,0,0-.52,1.51,1.5,1.5,0,0,0-1.25,1,2.94,2.94,0,0,1,.25,3.07,1.51,1.51,0,0,0,1.39.77,1.54,1.54,0,0,0,.77,1.41,1.52,1.52,0,0,0,1.57-.3,1.5,1.5,0,0,0,1.49.58,1.52,1.52,0,0,0,1-1.23,32.33,32.33,0,0,0,2.33-3.48Z"/><polygon points="177.25 212.8 150 212.8 122.75 212.8 119.97 237.49 180.03 237.49 177.25 212.8"/><polygon class="cls-6" points="167.88 221.01 167.88 221.01 165.87 140.28 167.88 221.01"/><polygon class="cls-6" points="159.5 139.39 159.5 139.39 160.67 221.71 159.5 139.39"/><path class="cls-3" d="M153.17,144.17l.28,78.25,7.22-.71-1.17-82.32c-1.28-.12-2.07-.16-2.07-.16Z"/><path class="cls-6" d="M159.5,139.39l1.17,82.32,7.22-.7-2-80.73C163.35,139.8,161.06,139.53,159.5,139.39Z"/><path class="cls-3" d="M172.29,142a46.35,46.35,0,0,0-6.42-1.67l2,80.73,7.19-.71Z"/><polygon class="cls-3" points="176.99 168.49 186.16 202.94 188.19 201.83 176.3 161.7 176.99 168.49"/><path class="cls-6" d="M174.35,142.75l2,18.95,11.89,40.13,3.81-2.09-16.77-56.58Z"/><path class="cls-3" d="M178.84,145.53a14.76,14.76,0,0,0-3.61-2.37L192,199.74l3.82-2.09L181.68,150a22.3,22.3,0,0,0-1.51-2.9A8.75,8.75,0,0,0,178.84,145.53Z"/><path class="cls-6" d="M197.39,196.79S189.1,170,186.17,161.6c-1.64-4.67-3.2-8.81-4.49-11.63l14.14,47.68Z"/><path class="cls-6" d="M176.81,167.82l.18.67-2.64-25.74c-.66-.29-1.35-.56-2.06-.8l2.79,78.35,5.51-.54Z"/><polygon class="cls-6" points="132.12 221.01 132.12 221.01 134.13 140.28 132.12 221.01"/><polygon class="cls-6" points="140.5 139.39 140.5 139.39 139.33 221.71 140.5 139.39"/><path class="cls-3" d="M146.84,144.17l-.28,78.25-7.23-.71,1.17-82.32c1.28-.12,2.07-.16,2.07-.16Z"/><path class="cls-6" d="M140.5,139.39l-1.17,82.32-7.21-.7,2-80.73C136.65,139.8,138.94,139.53,140.5,139.39Z"/><path class="cls-3" d="M127.71,142a46.72,46.72,0,0,1,6.42-1.67l-2,80.73-7.2-.71Z"/><polygon class="cls-3" points="113.84 202.94 119.49 181.72 123.01 168.49 123.7 161.7 111.81 201.83 113.84 202.94"/><path class="cls-6" d="M124.77,143.16,108,199.74l3.81,2.09L123.7,161.7l2-18.95Z"/><path class="cls-3" d="M121.16,145.53a8.29,8.29,0,0,0-1.32,1.54,22.14,22.14,0,0,0-1.52,2.9l-14.13,47.68,3.81,2.09,16.77-56.58A14.76,14.76,0,0,0,121.16,145.53Z"/><path class="cls-6" d="M113.83,161.6c-2.93,8.35-11.22,35.19-11.22,35.19l1.58.86L118.32,150C117,152.79,115.47,156.93,113.83,161.6Z"/><path class="cls-6" d="M123.19,167.82l-.18.67,2.64-25.74c.66-.29,1.35-.56,2.06-.8l-2.79,78.35-5.51-.54Z"/><polygon class="cls-6" points="153.17 144.17 150 147.82 146.84 144.17 146.56 222.42 147.19 222.48 150 212.8 152.81 222.48 153.45 222.42 153.17 144.17"/><circle class="cls-3" cx="150" cy="158.5" r="1.49"/><circle class="cls-3" cx="150" cy="173.57" r="1.49"/><circle class="cls-3" cx="150" cy="188.63" r="1.49"/><circle class="cls-3" cx="150" cy="203.69" r="1.49"/><rect class="cls-6" x="105.87" y="193.54" width="3.18" height="14.38" transform="matrix(0.34, -0.94, 0.94, 0.34, -117.72, 234.38)"/><rect class="cls-3" x="106.94" y="190.54" width="3.18" height="14.38" transform="translate(-114.19 233.4) rotate(-70.34)"/><rect class="cls-6" x="190.94" y="193.54" width="3.18" height="14.38" transform="translate(68.29 449.58) rotate(-109.66)"/><rect class="cls-3" x="189.87" y="190.54" width="3.18" height="14.38" transform="translate(69.69 444.57) rotate(-109.66)"/><polygon class="cls-6" points="147.75 145.23 141.56 137.91 134.29 140.11 146.07 150.41 147.75 145.23"/><polygon class="cls-3" points="134.29 140.11 132.96 140.52 145.54 151.29 146.07 150.41 134.29 140.11"/><polygon class="cls-7" points="150 147.82 154.46 152.16 152.25 145.23 150 147.82"/><polygon class="cls-7" points="150 147.82 145.54 152.16 147.75 145.23 150 147.82"/><polygon class="cls-6" points="152.25 145.23 158.44 137.91 165.71 140.11 153.93 151.29 152.25 145.23"/><polygon class="cls-3" points="165.71 140.11 167.04 140.52 154.46 152.16 153.93 151.29 165.71 140.11"/></svg>