<svg id="Layer_1" data-name="Layer 1" xmlns="http://www.w3.org/2000/svg" viewBox="0 0 300 300"><defs><style>.cls-1{fill:#dfb28b;}.cls-2{fill:#231f20;}.cls-3{fill:#393839;}.cls-4{fill:#f1f2f2;}.cls-5{fill:#fff;}.cls-6{fill:#926d5a;}.cls-7,.cls-8{fill:#d1d3d4;}.cls-8{opacity:0.5;}.cls-9{fill:none;stroke:#e6e7e8;stroke-miterlimit:10;stroke-width:1.04px;}</style></defs><title>Artboard 17</title><rect class="cls-1" x="142.05" y="132.28" width="15.91" height="18.19"/><polygon class="cls-2" points="98.55 265 139.25 265 139.37 256.41 110.22 256.41 98.55 265"/><polygon class="cls-2" points="201.5 265 160.79 265 160.68 256.41 189.82 256.41 201.5 265"/><polygon class="cls-3" points="189.16 240.85 188.17 218.09 150 218.09 111.83 218.09 110.84 240.85 110.16 256.58 139.36 256.58 143.82 240.85 146.17 232.56 153.05 232.56 155.67 240.85 160.64 256.58 189.84 256.58 189.16 240.85"/><path class="cls-1" d="M209.65,206.82,196,172l-12,2.89,14.34,36.57h0a5,5,0,0,0,2.73,5.2c4.36,2.13,3-1.85,3-1.85s7.92,2.46,13.62-2.23C222,209,213.82,207.39,209.65,206.82Z"/><path class="cls-1" d="M90.41,206.82,104.15,172l12.06,2.89-14.44,36.57h0a5,5,0,0,1-2.74,5.2c-4.4,2.13-3-1.85-3-1.85s-8,2.46-13.71-2.23C78,209,86.22,207.39,90.41,206.82Z"/><path class="cls-4" d="M185.23,181.63l18.08-5.76s-14.4-28.62-28.7-31.6l0-.1-.25,0-.17,0v.07a145.89,145.89,0,0,1-24.17,2,146,146,0,0,1-24.18-2l0-.07-.17,0-.25,0,0,.1c-14.3,3-28.7,31.6-28.7,31.6l18.08,5.76L106.46,225l39.92,2.17,3.62-8.9,3.62,8.9L193.54,225Z"/><path class="cls-5" d="M185.23,181.63l18.08-5.76s-14.4-28.62-28.7-31.6l0-.1-.25,0-.17,0v.07c-7.8,1.31-24.31,13.71-24.31,13.71s-16.24-12.4-24-13.71l0-.07-.17,0-.25,0,0,.1c-14.3,3-28.7,31.6-28.7,31.6l18.08,5.76L106.46,225l39.92,2.17,3.62-8.9,3.62,8.9L193.54,225Z"/><circle class="cls-1" cx="149.86" cy="93.76" r="49.8" transform="translate(33.3 226.66) rotate(-80.78)"/><path class="cls-2" d="M133.05,93.76a7.15,7.15,0,1,1-7.15-7.14A7.15,7.15,0,0,1,133.05,93.76Z"/><path class="cls-2" d="M181,93.76a7.15,7.15,0,1,1-7.14-7.14A7.15,7.15,0,0,1,181,93.76Z"/><path class="cls-6" d="M163.17,121.73s0,12.74-13.31,12.74-13.32-12.74-13.32-12.74"/><path class="cls-2" d="M199.43,89.06c2-35-5.23-41.35-18.48-41.78-11-17.35-49.92-14.27-65.47-3.4-14,9.75-17.53,16.37-15.43,45.18,0,0,12.81-24.93,26.44-31.73,12.68,5.47,28.92,4.7,41.88,1.11C190.7,66.17,199.43,89.06,199.43,89.06Z"/><rect class="cls-2" x="174.05" y="69.34" width="4.81" height="15.52" transform="translate(81.48 244.61) rotate(-84.05)"/><rect class="cls-2" x="114.7" y="74.69" width="15.52" height="4.81" transform="translate(-11.55 22.5) rotate(-10.03)"/><path class="cls-3" d="M200,92.26l-.32-4.12-6.61,3.48v-4c0-3-3.35-5.38-7.47-5.38H161.3c-4.12,0-7.47,2.41-7.47,5.38v4a14,14,0,0,0-4.19-.61,15.14,15.14,0,0,0-4.45.71V87.64c0-3-3.35-5.38-7.48-5.38H113.4c-4.12,0-7.48,2.41-7.48,5.38v4l-5.78-2.78L100,93l5.94,2.88v4c0,3,3.36,5.38,7.48,5.38h24.31c4.13,0,7.48-2.41,7.48-5.38V95.76a9.74,9.74,0,0,1,4.51-1.24h0a7.8,7.8,0,0,1,4.12,1.21v4.16c0,3,3.35,5.38,7.47,5.38h24.32c4.12,0,7.47-2.41,7.47-5.38v-4Zm-59.7,7.63c0,1-1.17,1.88-2.61,1.88H113.4c-1.44,0-2.61-.84-2.61-1.88V87.64c0-1,1.17-1.88,2.61-1.88h24.31c1.44,0,2.61.84,2.61,1.88Zm47.9,0c0,1-1.17,1.88-2.6,1.88H161.3c-1.43,0-2.61-.84-2.61-1.88V87.64c0-1,1.18-1.88,2.61-1.88h24.32c1.43,0,2.6.84,2.6,1.88Z"/><path d="M199.48,98.73c0-.22-.16-.41-.25-.61-3.29,7.85-10.88,13.83-16.55,21.57-5.25,7.17-9.3,17.73-32.78,17.73s-27.52-10.56-32.77-17.73C111.46,112,103.86,106,100.57,98.12c-.08.2-.26.39-.25.61.28,4.72-.38,9.48-.38,12.84,0,19.63,21.5,32.4,50,32.44s50-12.81,50-32.44C199.87,108.21,199.2,103.45,199.48,98.73Z"/><polygon class="cls-5" points="129.51 142.68 121.17 145.55 120.42 148.9 133.86 149.98 131.23 151.45 149.88 157.95 129.51 142.68"/><polygon class="cls-7" points="120.42 148.9 132.47 150.76 133.86 149.98 120.42 148.9"/><polygon class="cls-8" points="131.23 151.45 149.9 158.97 149.88 157.95 131.23 151.45"/><polygon class="cls-5" points="170.25 142.68 178.59 145.55 179.33 148.9 165.9 149.98 168.53 151.45 149.88 157.95 170.25 142.68"/><polygon class="cls-7" points="179.33 148.9 167.29 150.76 165.9 149.98 179.33 148.9"/><polygon class="cls-8" points="168.53 151.45 149.85 158.97 149.88 157.95 168.53 151.45"/><line class="cls-9" x1="150" y1="219.51" x2="150" y2="157.95"/></svg>