<svg id="Layer_1" data-name="Layer 1" xmlns="http://www.w3.org/2000/svg" viewBox="0 0 300 300"><defs><style>.cls-1{fill:#f5e0cd;}.cls-2{fill:#880102;}.cls-3{fill:#1c266f;}.cls-4{fill:#1e1012;}.cls-5{fill:#3c2415;}.cls-6{fill:#231f20;}.cls-7{fill:#e0ada6;}.cls-8{fill:#feda00;}.cls-9{fill:#233181;}.cls-10{fill:#ed1c24;}.cls-11,.cls-12{fill:#e4bf21;}.cls-12{opacity:0.6;}.cls-13{fill:#e8e62f;}.cls-13,.cls-14,.cls-15{stroke:#000004;stroke-width:0.38px;}.cls-13,.cls-15{fill-rule:evenodd;}.cls-14{fill:#000004;}.cls-15{fill:#ee2e2d;}.cls-16{fill:#09393c;}</style></defs><title>Artboard 18</title><rect class="cls-1" x="146.18" y="128.67" width="13.11" height="14.99"/><path class="cls-2" d="M138.33,63.5s-32.84,13.85-34,25.15S158.8,75.8,158.8,75.8Z"/><path class="cls-1" d="M115.76,201.67l8.66-35,7.6,2.91-9.1,36.82h0c.07,1.77-.19,4-1.73,5.23-2.77,2.15-1.88-1.86-1.88-1.86a7,7,0,0,1-8.64-2.25C107.91,203.89,113.12,202.25,115.76,201.67Z"/><path class="cls-1" d="M189.61,201.67l-8.66-35-7.6,2.91,9.1,36.82h0c-.07,1.77.19,4,1.73,5.23,2.77,2.15,1.88-1.86,1.88-1.86a7,7,0,0,0,8.64-2.25C197.46,203.89,192.26,202.25,189.61,201.67Z"/><path class="cls-3" d="M137.5,138.58l1,9-5.74,23.16-10-3.55C127.06,153,133.31,139.67,137.5,138.58Z"/><path class="cls-3" d="M167.72,138.58l-1,9,5.74,23.16,10-3.55C178.17,153,171.92,139.67,167.72,138.58Z"/><polygon class="cls-4" points="122.71 265 145.75 265 145.82 255.7 129.32 255.7 122.71 265"/><polygon class="cls-4" points="182.78 265 159.73 265 159.67 255.7 176.17 255.7 182.78 265"/><polygon class="cls-1" points="129.29 255.72 145.82 255.72 147.66 243.29 129.57 243.29 129.29 255.72"/><polygon class="cls-1" points="157.6 243.29 159.65 255.72 176.18 255.72 175.9 243.29 157.6 243.29"/><polygon class="cls-5" points="176.01 212.89 152.73 212.89 129.46 212.89 127.85 244.42 149.12 244.42 150.4 229.78 154.59 229.77 156.12 244.42 177.61 244.42 176.01 212.89"/><circle class="cls-1" cx="152.61" cy="92.47" r="41.05" transform="translate(27.55 219.75) rotate(-76.72)"/><path class="cls-6" d="M138.76,92.47a5.89,5.89,0,1,1-5.89-5.89A5.89,5.89,0,0,1,138.76,92.47Z"/><path class="cls-6" d="M178.24,92.47a5.89,5.89,0,1,1-5.89-5.89A5.89,5.89,0,0,1,178.24,92.47Z"/><path class="cls-7" d="M141.64,115.51h21.94s0,10.51-11,10.51S141.64,115.51,141.64,115.51Z"/><path class="cls-8" d="M151.12,44.3c-22.71-.73-28.21,2.4-33.92,8.62-10.4,11.32-5.59,39.74-5.59,39.74s.54-19.92,11.72-24.08c10.51-3.91,33.63-11.76,60.1,1.12,12.51,6.09,9.21,32.3,9.21,32.3s6.37-30.76-1.36-44.27C180.75,39.35,163.41,44.69,151.12,44.3Z"/><path class="cls-9" d="M152.73,140.59a58.42,58.42,0,0,1-15.22-2l-11.75,79.1h54L168,138.58A58.5,58.5,0,0,1,152.73,140.59Z"/><path class="cls-10" d="M152.61,35c-45.7,0-42.11,41.49-42.11,41.49s9.13-16.17,38.81-17.88c34.78-2,46.33,18.54,46.33,18.54S198.09,35,152.61,35Z"/><path class="cls-8" d="M142.72,56.66s14.61-4.82,28.39,1.43c0,0,2-11.45-13.8-11.94C143.08,45.71,142.72,56.66,142.72,56.66Z"/><path class="cls-11" d="M138.77,81.12s-5.93-2.41-14.3,2.16C123.29,83.93,132.84,71.79,138.77,81.12Z"/><path class="cls-11" d="M166.46,81.12s5.93-2.41,14.29,2.16C181.93,83.93,172.39,71.79,166.46,81.12Z"/><path class="cls-12" d="M192.5,102.24c-1.33,2.12-10.63,16.54-22.24,22.64,1.24-5.37,1.44-16.27-17.23-16.27h-.4c-18.87,0-18.45,11.13-17.19,16.43-12.47-6.36-22.36-22.46-22.72-23a41.06,41.06,0,0,0,39.91,31.49h0A41.05,41.05,0,0,0,192.5,102.24Zm-27.92,24.82a17.63,17.63,0,0,1-5.41.49c-1.63-.11-4.7-.67-6.48-.67s-4.86.56-6.48.67a17.49,17.49,0,0,1-5.1-.41c-3.5-12.1-3.42-13.39,11.52-14.18h.4C167.94,113.75,168.05,115,164.58,127.06Z"/><polygon class="cls-13" points="152.62 180.49 166.83 164.16 162.53 159.53 142.96 159.62 138.57 163.92 152.62 180.49"/><path class="cls-14" d="M142.65,158.62h20.17l.27.12,5.62,5.42-16,18.23-16-18.23,5.61-5.42.28-.12Zm15.25,6.09,0-.36a2.76,2.76,0,0,0-1.44-2.38,10,10,0,0,0-4.75-.84,7.81,7.81,0,0,0-4.18,1.24,1.32,1.32,0,0,0,.07,2.39c1.76.84,4,.8,6.28.76,3.29-.06,6.51-.12,8.24,2.48l3.32-3.8-2.17-2.09v2.63c-1.78,0-3.55,0-5.33,0Zm1.2-3.4.15-.26h-.46l.31.26Zm-14.17-.26h-1.6l-3.27,3.15,1.6,1.82a8,8,0,0,1,3.27-5Zm7.3,9.37a38.15,38.15,0,0,1-7.25-.61l2,2.31a3.76,3.76,0,0,1,5.57,1.23,17.24,17.24,0,0,0,5.09-.65c1-.39,1.6-1.25.19-1.76a21.44,21.44,0,0,0-5.62-.52Zm-2.13,5.23,2.63,3,2.63-3A21,21,0,0,1,150.1,175.65Z"/><path class="cls-15" d="M142.65,159h20.17l5.34,5.16-15.43,17.6-15.42-17.6,5.34-5.16Zm15.61,5.29a3.11,3.11,0,0,0-1.65-2.69c-2.31-1.19-6.91-1.36-9.36.42a1.71,1.71,0,0,0,.14,3.08c4.55,2.17,12.06-1.29,14.63,3.55l3.93-4.49-3.11-3v3.17l-4.58,0Zm1.67-3.66h-2.49a7.53,7.53,0,0,1,1.76,1.29c.24-.43.48-.86.73-1.29Zm-13.71,0h-3.05l-3.66,3.53L142,167c-.1-1.92.87-4,3.57-6a4.6,4.6,0,0,1,.64-.4Zm-2.43,8.41,3.17,3.62a3.34,3.34,0,0,1,5.36,1.08,18.57,18.57,0,0,0,5.48-.69c.61-.23,1.68-.92,1.26-1.7-1.21-2.27-10.09-.52-15.27-2.31Zm5.28,6,3.66,4.19,3.63-4.14A20.77,20.77,0,0,1,149.07,175.08Z"/><polygon class="cls-16" points="118.01 192.58 125.67 195.27 126.88 190.36 119.19 187.8 118.01 192.58"/></svg>