<svg id="Layer_1" data-name="Layer 1" xmlns="http://www.w3.org/2000/svg" viewBox="0 0 300 300"><defs><style>.cls-1{fill:#3c2415;}.cls-2{fill:#ecc19c;}.cls-3{fill:#2080bb;}.cls-4{fill:#700f11;}.cls-5{fill:#fdcc9a;}.cls-6{fill:#ed1c24;}.cls-7{fill:#231f20;}.cls-8{fill:#db9c94;}</style></defs><title>Artboard 3</title><polygon class="cls-1" points="114.97 277.52 140.18 277.52 140.25 269.57 122.19 269.57 114.97 277.52"/><polygon class="cls-1" points="178.59 277.52 153.38 277.52 153.31 269.57 171.36 269.57 178.59 277.52"/><polygon class="cls-2" points="149.94 250.43 153.39 269.59 171.45 269.59 170.98 250.43 149.94 250.43"/><polygon class="cls-2" points="122.19 269.59 140.24 269.59 143.34 250.43 122.66 250.43 122.19 269.59"/><polygon class="cls-3" points="170.42 224.92 123.22 224.92 122.66 250.43 143.34 250.43 144.45 243.6 148.7 243.59 149.94 250.43 170.98 250.43 170.42 224.92"/><path class="cls-4" d="M220.88,108.48a12.23,12.23,0,0,0-4.64-9.6,12.23,12.23,0,0,0-4.13-17.07,15,15,0,0,0-4.25-15.57,10.64,10.64,0,0,0,.75-3.92,10.84,10.84,0,0,0-6-9.68,15,15,0,0,0-8-8.53,15,15,0,0,0-15-14.32,15.33,15.33,0,0,0-2,.16,15,15,0,0,0-21.9-4.5,15,15,0,0,0-18.51.49c-.42,0-.84-.07-1.26-.07A14.88,14.88,0,0,0,130.3,27,15,15,0,0,0,110,37.58,16.26,16.26,0,0,0,95.31,53.76c0,.25,0,.48,0,.72A16.27,16.27,0,0,0,83.88,70a16,16,0,0,0,.9,5.31A10.84,10.84,0,0,0,83,92.11,10.85,10.85,0,0,0,81,106.56a10.83,10.83,0,0,0,.79,13.32A10.82,10.82,0,0,0,85,135.41a12.82,12.82,0,0,0,3,15.69,12.21,12.21,0,0,0-.07,1.35,12.88,12.88,0,0,0,6.53,11.21,16.26,16.26,0,1,0,31.71,5.06v-.09a15.48,15.48,0,0,0,1.68.09,16.27,16.27,0,0,0,0-32.53c-.23,0-.45,0-.68,0a16.17,16.17,0,0,0-2.45-14.2,16.22,16.22,0,0,0-7.55-21.23,16.24,16.24,0,0,0,4.27-5.8,16.26,16.26,0,0,0,11.24-15.47,16,16,0,0,0-1.35-6.45,10.58,10.58,0,0,0,3.42-1,10.7,10.7,0,0,0,4.69,1.08,10.81,10.81,0,0,0,7.31-2.84,16.21,16.21,0,0,0,18.8,4.33,16.24,16.24,0,0,0,10.14,4.81,16.06,16.06,0,0,0-.35,3.35A16.27,16.27,0,0,0,185,97.66a16.21,16.21,0,0,0-5.2,22.77,16,16,0,0,0-1.81,2.28,16.25,16.25,0,0,0-24.22,7.54,16.25,16.25,0,0,0,13.59,29.28,16.37,16.37,0,0,0,5.07,6.06,13,13,0,0,0-.51,3.55,12.88,12.88,0,0,0,25.27,3.52,12.88,12.88,0,0,0,8.46-12.08,12.61,12.61,0,0,0-.47-3.39,10.76,10.76,0,0,0,3.13-10.45,12.26,12.26,0,0,0,4.78-9.71c0-.3,0-.6-.05-.89a12.25,12.25,0,0,0,2.48-17.52A12.25,12.25,0,0,0,220.88,108.48Z"/><rect class="cls-5" x="139.43" y="141.34" width="14.69" height="16.8"/><path class="cls-5" d="M189.14,215.5l-9.76-35-8.58,2.91,10.27,36.8h0c-.08,1.77.21,4,1.95,5.23,3.13,2.15,2.12-1.86,2.12-1.86s5.67,2.48,9.75-2.25C198,217.72,192.13,216.08,189.14,215.5Z"/><path class="cls-5" d="M104.41,215.5l9.77-35,8.57,2.91-10.26,36.8h0c.08,1.77-.21,4-2,5.23-3.12,2.15-2.12-1.86-2.12-1.86s-5.66,2.48-9.74-2.25C95.55,217.72,101.43,216.08,104.41,215.5Z"/><path class="cls-6" d="M146.78,154.46a74.51,74.51,0,0,1-17.18-2l-15.4,73.61h65L164,152.45A74.49,74.49,0,0,1,146.78,154.46Z"/><path class="cls-5" d="M192.75,101.88a46,46,0,1,1-46-46A46,46,0,0,1,192.75,101.88Z"/><path class="cls-7" d="M131.26,101.88a6.6,6.6,0,1,1-6.59-6.59A6.6,6.6,0,0,1,131.26,101.88Z"/><circle class="cls-7" cx="168.89" cy="101.88" r="6.6"/><path class="cls-8" d="M134.49,127.69h24.58s0,11.77-12.29,11.77S134.49,127.69,134.49,127.69Z"/><path class="cls-4" d="M179.82,93.28s-7.53-5.29-16.76-3.92C163.06,89.36,174.6,82.07,179.82,93.28Z"/><path class="cls-4" d="M113.74,93.28s7.52-5.29,16.75-3.92C130.49,89.36,119,82.07,113.74,93.28Z"/><path class="cls-7" d="M103.9,214.12l9.69,7.29,10.88-45L113.59,229l15.88,0,8.31-75.27c-2.82-.29-8.31-1.48-8.31-1.48C116.2,157.58,103.9,214.12,103.9,214.12Z"/><path class="cls-7" d="M189.47,214.25s-12.3-56.55-25.57-61.85c0,0-5.48,1.19-8.31,1.47l8.31,75.28,15.88-.05L168.9,176.57l10.88,45Z"/><path class="cls-4" d="M160.38,39.74c.16-.57-35.71-2.24-35.71-2.24s-16.65-6-36.15,47.75c0,0,7.43,8.3,31.36-9.42,14.61-10.83,43.49-9.77,52.64.92,11.3,13.23,30.75,13.41,30.75,13.41S185.48,45.14,160.38,39.74Z"/></svg>