<svg id="Layer_1" data-name="Layer 1" xmlns="http://www.w3.org/2000/svg" viewBox="0 0 300 300"><defs><style>.cls-1{fill:#231f20;}.cls-2{fill:#f0d0b4;}.cls-3{fill:#fff;}.cls-4{fill:#f38dba;}.cls-5{fill:#f067a6;}.cls-6{fill:#f1f2f2;}.cls-7{fill:#d7df23;}.cls-8{fill:#f177ae;}</style></defs><title>Artboard 4</title><rect class="cls-1" x="101.2" y="73.83" width="94.78" height="90.58"/><polygon class="cls-2" points="150 213.03 123.98 213.03 122.84 254.7 142.75 254.7 147.39 228.7 152.08 228.69 157.25 254.7 177.16 254.7 176.02 213.03 150 213.03"/><rect class="cls-2" x="142.66" y="126.54" width="14.69" height="16.8"/><path class="cls-2" d="M196.72,200.69l-10.78-35-9.45,2.91,11.32,36.8h0c-.09,1.77.23,4,2.15,5.24,3.44,2.14,2.33-1.87,2.33-1.87s6.25,2.48,10.75-2.25C206.48,202.91,200,201.27,196.72,200.69Z"/><path class="cls-2" d="M103.28,200.69l10.78-35,9.45,2.91-11.32,36.8h0c.09,1.77-.23,4-2.15,5.24-3.44,2.14-2.33-1.87-2.33-1.87s-6.25,2.48-10.75-2.25C93.52,202.91,100,201.27,103.28,200.69Z"/><polygon class="cls-3" points="114.88 262.62 142.68 262.62 142.76 254.69 122.85 254.69 114.88 262.62"/><polygon class="cls-3" points="185.04 262.62 157.23 262.62 157.16 254.69 177.06 254.69 185.04 262.62"/><path class="cls-2" d="M196,89.9a46,46,0,1,1-46-46A46,46,0,0,1,196,89.9Z"/><path class="cls-1" d="M134.48,89.9a6.6,6.6,0,1,1-6.59-6.59A6.59,6.59,0,0,1,134.48,89.9Z"/><path class="cls-1" d="M178.71,89.9a6.6,6.6,0,1,1-6.6-6.59A6.6,6.6,0,0,1,178.71,89.9Z"/><path class="cls-4" d="M137.71,115.71h24.58s0,11.77-12.29,11.77S137.71,115.71,137.71,115.71Z"/><path class="cls-5" d="M115.39,202.39a2.31,2.31,0,0,1-3.08,1.08l-9-4.32a2.3,2.3,0,0,1-1.08-3.07h0a2.3,2.3,0,0,1,3.08-1.09l9,4.32a2.31,2.31,0,0,1,1.09,3.08Z"/><polygon class="cls-6" points="115.97 211.25 111.51 235.54 188.53 235.54 183.47 211.25 115.97 211.25"/><path class="cls-5" d="M191.79,168.23S180.27,140,168.94,137.65v0a90.63,90.63,0,0,1-37.87,0l0,.06v-.06c-11.32,2.36-22.85,30.58-22.85,30.58l14.57,5.68-9.23,40.44,72.94.17-9.23-40.42Z"/><path class="cls-1" d="M123.91,76.74s24.05-.32,41.61-16.66S162.72,38.13,148,37.57c-27.78-1.06-47.71,23.14-49.12,39.17C98.85,76.74,101.83,78.62,123.91,76.74Z"/><path class="cls-1" d="M146,61.18s49,16.16,49,38.13c0,0,14.07-61.87-41.6-61.93C116.16,37.34,146,61.18,146,61.18Z"/><path class="cls-7" d="M105.79,73.12s37.67-48.83,87.88,2.38L193,70.39s-13.61-22.91-44.4-22.91c-30.6,0-40.77,17.59-42.29,20.86Z"/><path class="cls-3" d="M118.91,55.45c0,3.2-1.83,5.79-4.1,5.79s-4.1-2.59-4.1-5.79,1.83-5.8,4.1-5.8S118.91,52.25,118.91,55.45Z"/><path class="cls-3" d="M114.23,54.16c2.06,2.45,2.32,5.62.58,7.08s-4.81.65-6.87-1.8-2.31-5.62-.58-7.08S112.17,51.71,114.23,54.16Z"/><path class="cls-3" d="M109.82,56.19c3.15.56,5.38,2.82,5,5.05s-3.27,3.59-6.42,3-5.38-2.81-5-5S106.67,55.64,109.82,56.19Z"/><path class="cls-3" d="M107.74,60.58c2.77-1.6,5.94-1.3,7.07.66s-.19,4.85-3,6.45S105.91,69,104.78,67,105,62.18,107.74,60.58Z"/><path class="cls-3" d="M109,65.28c1.1-3,3.71-4.81,5.84-4s3,3.84,1.87,6.85-3.7,4.81-5.83,4S107.88,68.28,109,65.28Z"/><path class="cls-3" d="M112.94,68.09c-1.1-3-.26-6.08,1.87-6.85s4.74,1,5.84,4,.25,6.07-1.88,6.84S114,71.09,112.94,68.09Z"/><path class="cls-3" d="M117.77,67.69c-2.76-1.6-4.09-4.49-3-6.45s4.3-2.26,7.07-.66,4.1,4.49,3,6.45S120.54,69.29,117.77,67.69Z"/><path class="cls-3" d="M121.23,64.27c-3.15.56-6-.8-6.42-3s1.84-4.49,5-5.05,6,.81,6.42,3S124.38,63.72,121.23,64.27Z"/><path class="cls-3" d="M121.68,59.44c-2.06,2.45-5.13,3.25-6.87,1.8s-1.48-4.62.58-7.08,5.13-3.25,6.87-1.79S123.73,57,121.68,59.44Z"/><path class="cls-8" d="M119.16,61.24a4.35,4.35,0,1,1-4.35-4.35A4.34,4.34,0,0,1,119.16,61.24Z"/><path class="cls-3" d="M142,44.32c0,3.2-1.84,5.79-4.1,5.79s-4.11-2.59-4.11-5.79,1.84-5.79,4.11-5.79S142,41.12,142,44.32Z"/><path class="cls-3" d="M137.29,43c2.05,2.45,2.31,5.61.58,7.07s-4.81.65-6.87-1.8-2.32-5.62-.58-7.07S135.23,40.59,137.29,43Z"/><path class="cls-3" d="M132.88,45.06c3.15.56,5.38,2.82,5,5s-3.27,3.59-6.42,3-5.38-2.82-5-5S129.73,44.51,132.88,45.06Z"/><path class="cls-3" d="M130.8,49.45c2.77-1.6,5.93-1.3,7.07.66s-.2,4.85-3,6.45-5.93,1.31-7.07-.66S128,51.05,130.8,49.45Z"/><path class="cls-3" d="M132,54.15c1.1-3,3.71-4.81,5.84-4s3,3.84,1.87,6.85-3.7,4.81-5.83,4S130.94,57.16,132,54.15Z"/><path class="cls-3" d="M136,57c-1.09-3-.25-6.07,1.88-6.85s4.74,1,5.84,4,.25,6.07-1.88,6.85S137.08,60,136,57Z"/><path class="cls-3" d="M140.83,56.56c-2.77-1.6-4.09-4.49-3-6.45s4.3-2.26,7.07-.66,4.09,4.49,3,6.45S143.6,58.16,140.83,56.56Z"/><path class="cls-3" d="M144.28,53.15c-3.14.55-6-.81-6.41-3s1.84-4.49,5-5,6,.81,6.42,3S147.43,52.59,144.28,53.15Z"/><path class="cls-3" d="M144.73,48.31c-2,2.45-5.13,3.26-6.86,1.8s-1.48-4.62.58-7.07,5.13-3.26,6.87-1.8S146.79,45.86,144.73,48.31Z"/><path class="cls-8" d="M142.21,50.11a4.35,4.35,0,1,1-4.34-4.34A4.34,4.34,0,0,1,142.21,50.11Z"/><path class="cls-3" d="M167.49,44.32c0,3.2-1.84,5.79-4.1,5.79s-4.11-2.59-4.11-5.79,1.84-5.79,4.11-5.79S167.49,41.12,167.49,44.32Z"/><path class="cls-3" d="M162.81,43c2.05,2.45,2.31,5.61.58,7.07s-4.81.65-6.87-1.8-2.32-5.62-.58-7.07S160.75,40.59,162.81,43Z"/><path class="cls-3" d="M158.39,45.06c3.15.56,5.39,2.82,5,5s-3.27,3.59-6.42,3-5.39-2.82-5-5S155.24,44.51,158.39,45.06Z"/><path class="cls-3" d="M156.32,49.45c2.77-1.6,5.93-1.3,7.07.66s-.2,4.85-3,6.45-5.93,1.31-7.07-.66S153.55,51.05,156.32,49.45Z"/><path class="cls-3" d="M157.55,54.15c1.09-3,3.7-4.81,5.84-4s3,3.84,1.87,6.85-3.71,4.81-5.84,4S156.45,57.16,157.55,54.15Z"/><path class="cls-3" d="M161.51,57c-1.09-3-.25-6.07,1.88-6.85s4.74,1,5.83,4,.26,6.07-1.87,6.85S162.6,60,161.51,57Z"/><path class="cls-3" d="M166.35,56.56c-2.77-1.6-4.1-4.49-3-6.45s4.29-2.26,7.06-.66,4.1,4.49,3,6.45S169.12,58.16,166.35,56.56Z"/><path class="cls-3" d="M169.8,53.15c-3.15.55-6-.81-6.41-3s1.84-4.49,5-5,6,.81,6.41,3S173,52.59,169.8,53.15Z"/><path class="cls-3" d="M170.25,48.31c-2.05,2.45-5.13,3.26-6.86,1.8s-1.48-4.62.58-7.07,5.12-3.26,6.86-1.8S172.31,45.86,170.25,48.31Z"/><path class="cls-8" d="M167.73,50.11a4.35,4.35,0,1,1-4.34-4.34A4.34,4.34,0,0,1,167.73,50.11Z"/><path class="cls-3" d="M192.07,55.45c0,3.2-1.84,5.79-4.11,5.79s-4.1-2.59-4.1-5.79,1.84-5.8,4.1-5.8S192.07,52.25,192.07,55.45Z"/><path class="cls-3" d="M187.38,54.16c2.06,2.45,2.32,5.62.58,7.08s-4.8.65-6.86-1.8-2.32-5.62-.58-7.08S185.33,51.71,187.38,54.16Z"/><path class="cls-3" d="M183,56.19c3.15.56,5.39,2.82,5,5.05s-3.26,3.59-6.41,3-5.39-2.81-5-5S179.82,55.64,183,56.19Z"/><path class="cls-3" d="M180.9,60.58c2.77-1.6,5.93-1.3,7.06.66s-.19,4.85-3,6.45S179.07,69,177.93,67,178.13,62.18,180.9,60.58Z"/><path class="cls-3" d="M182.13,65.28c1.09-3,3.7-4.81,5.83-4s3,3.84,1.88,6.85-3.71,4.81-5.84,4S181,68.28,182.13,65.28Z"/><path class="cls-3" d="M186.09,68.09c-1.09-3-.25-6.08,1.87-6.85s4.75,1,5.84,4,.26,6.07-1.87,6.84S187.18,71.09,186.09,68.09Z"/><path class="cls-3" d="M190.93,67.69c-2.77-1.6-4.1-4.49-3-6.45s4.3-2.26,7.07-.66,4.1,4.49,3,6.45S193.7,69.29,190.93,67.69Z"/><path class="cls-3" d="M194.38,64.27c-3.15.56-6-.8-6.42-3s1.85-4.49,5-5.05,6,.81,6.41,3S197.53,63.72,194.38,64.27Z"/><path class="cls-3" d="M194.83,59.44c-2.05,2.45-5.13,3.25-6.87,1.8s-1.47-4.62.58-7.08,5.13-3.25,6.87-1.79S196.89,57,194.83,59.44Z"/><path class="cls-8" d="M192.31,61.24A4.35,4.35,0,1,1,188,56.89,4.34,4.34,0,0,1,192.31,61.24Z"/><path class="cls-1" d="M119.07,83.37a4.69,4.69,0,0,1,.31-.64,7,7,0,0,1,1.16-1.48,7.26,7.26,0,0,1,1-.83,8.33,8.33,0,0,1,1.21-.76,7.84,7.84,0,0,1,1.42-.59,10,10,0,0,1,1.55-.37,14.29,14.29,0,0,1,1.59-.1c.52,0,1,.1,1.52.16s.94.24,1.37.36a7.78,7.78,0,0,1,1.16.48,8,8,0,0,1,1.59,1l.55.43s-.27,0-.71-.07a6.76,6.76,0,0,1-.77-.11c-.29-.06-.63-.08-1-.12s-.74-.09-1.14-.12-.82,0-1.24-.07-.87,0-1.32,0-.88.06-1.33.14-.88.13-1.3.25l-.64.15-.62.2c-.4.13-.78.29-1.16.42s-.72.31-1,.47A22.78,22.78,0,0,0,119.07,83.37Z"/><path class="cls-1" d="M180.94,83.37a21.72,21.72,0,0,0-2.13-1.2c-.32-.16-.68-.29-1-.47s-.76-.29-1.17-.42l-.61-.2-.64-.15c-.42-.12-.87-.17-1.31-.25s-.89-.08-1.33-.14-.88,0-1.31,0-.84.06-1.25.07-.78.1-1.14.12-.69.06-1,.12a6.9,6.9,0,0,1-.78.11c-.43.06-.7.07-.7.07s.19-.16.55-.43a8,8,0,0,1,1.59-1,7.78,7.78,0,0,1,1.16-.48c.43-.12.89-.26,1.37-.36s1-.13,1.52-.16a14.29,14.29,0,0,1,1.59.1,10,10,0,0,1,1.55.37,8.15,8.15,0,0,1,1.42.59,8.91,8.91,0,0,1,1.21.76,7.26,7.26,0,0,1,1,.83,6.56,6.56,0,0,1,1.15,1.48A3.54,3.54,0,0,1,180.94,83.37Z"/></svg>