<svg id="Layer_1" data-name="Layer 1" xmlns="http://www.w3.org/2000/svg" viewBox="0 0 300 300"><defs><style>.cls-1{fill:#f0d0b4;}.cls-2{fill:#231f20;}.cls-3{fill:#e0ada6;}.cls-4{fill:#3c2415;}.cls-5{fill:#ed1c24;}.cls-6{fill:#03406d;}.cls-7{fill:#a97c50;}.cls-8{fill:#fff;}</style></defs><title>Artboard 5</title><circle class="cls-1" cx="149.87" cy="91.69" r="46" transform="translate(-20.94 132.83) rotate(-45)"/><path class="cls-2" d="M134.34,91.69a6.6,6.6,0,1,1-6.59-6.59A6.59,6.59,0,0,1,134.34,91.69Z"/><path class="cls-2" d="M178.58,91.69A6.6,6.6,0,1,1,172,85.1,6.59,6.59,0,0,1,178.58,91.69Z"/><path class="cls-3" d="M137.57,117.52h24.59s0,11.77-12.29,11.77S137.57,117.52,137.57,117.52Z"/><path class="cls-2" d="M197,89.67,194.42,86l-4.3,3V83.83a6.92,6.92,0,0,0-6.91-6.91H160.76a6.92,6.92,0,0,0-6.91,6.91V89a9.4,9.4,0,0,0-3.86-.79,10.44,10.44,0,0,0-4.11.91V83.83A6.92,6.92,0,0,0,139,76.92H116.51a6.92,6.92,0,0,0-6.9,6.91v5.11l-5.74-3.84-.35,5.1,6.09,4.21v5.15a6.92,6.92,0,0,0,6.9,6.91H139a6.92,6.92,0,0,0,6.91-6.91v-5.3a7.22,7.22,0,0,1,4.17-1.59h0a5.8,5.8,0,0,1,3.79,1.55v5.34a6.92,6.92,0,0,0,6.91,6.91h22.45a6.92,6.92,0,0,0,6.91-6.91V94.41Zm-55.6,9.89A2.41,2.41,0,0,1,139,102H116.51a2.41,2.41,0,0,1-2.4-2.41V83.83a2.41,2.41,0,0,1,2.4-2.41H139a2.41,2.41,0,0,1,2.41,2.41Zm44.24,0a2.41,2.41,0,0,1-2.41,2.41H160.76a2.41,2.41,0,0,1-2.41-2.41V83.83a2.41,2.41,0,0,1,2.41-2.41h22.45a2.41,2.41,0,0,1,2.41,2.41Z"/><path class="cls-4" d="M149.87,49.3C124.43,48,116.42,52.63,110,59.61c-11.64,12.68-6.09,32.3-6.09,32.3s.61-22.33,13.13-27c11.78-4.38,37.69-13.18,67.35,1.25,14,6.83,10.32,36.2,10.32,36.2s7.11-24.07-1.83-39C188.27,55.59,149.87,49.3,149.87,49.3Z"/><path class="cls-5" d="M149.79,30.3c-51.58,0-45.92,40.17-45.92,40.17s10-15.95,42.18-17.87c37.76-2.25,49.81,17.87,49.81,17.87S200.93,30.27,149.79,30.3Z"/><polygon class="cls-6" points="150 218.76 121.77 218.76 120.54 260.43 142.13 260.43 147.17 234.43 152.26 234.42 157.87 260.43 179.46 260.43 178.23 218.76 150 218.76"/><rect class="cls-1" x="142.66" y="132.26" width="14.69" height="16.8"/><path class="cls-1" d="M192.72,206.42l-9.85-35-8.65,2.91,10.35,36.8h0c-.09,1.77.21,4,2,5.23,3.15,2.15,2.14-1.86,2.14-1.86s5.71,2.47,9.82-2.25C201.65,208.64,195.72,207,192.72,206.42Z"/><path class="cls-1" d="M107.29,206.42l9.84-35,8.65,2.91-10.35,36.8h0c.09,1.77-.21,4-2,5.23-3.15,2.15-2.14-1.86-2.14-1.86s-5.71,2.47-9.82-2.25C98.35,208.64,104.28,207,107.29,206.42Z"/><polygon class="cls-7" points="111.95 269.7 142.05 269.7 142.13 260.41 120.58 260.41 111.95 269.7"/><polygon class="cls-7" points="188.09 269.7 157.98 269.7 157.9 260.41 179.45 260.41 188.09 269.7"/><path class="cls-8" d="M188.21,174s-10.54-28.21-20.89-30.58v0a75.54,75.54,0,0,1-34.62,0v0C122.33,145.74,111.79,174,111.79,174l13.36,5.72-8.87,42.74h67.44l-8.86-42.69Z"/><path class="cls-4" d="M117.32,75.73s9.25-4.07,18.16-1.28C135.48,74.45,124.21,65.46,117.32,75.73Z"/><path class="cls-4" d="M182.65,75.73s-9.25-4.07-18.16-1.28C164.49,74.45,175.76,65.46,182.65,75.73Z"/></svg>