<svg id="Layer_1" data-name="Layer 1" xmlns="http://www.w3.org/2000/svg" viewBox="0 0 300 300"><defs><style>.cls-1{fill:#3c2415;}.cls-2{fill:#ecc19c;}.cls-3{fill:#414042;}.cls-4{fill:#231f20;}.cls-5{fill:#db9c94;}.cls-6{fill:#1b75bc;}.cls-7{fill:#d7df23;}</style></defs><title>Artboard 6</title><path class="cls-1" d="M197.39,165.93V75.34H102.61v90.59S147,139.16,197.39,165.93Z"/><rect class="cls-2" x="142.66" y="128.05" width="14.69" height="16.8"/><polygon class="cls-3" points="114.88 264.14 142.68 264.14 142.76 256.2 122.85 256.2 114.88 264.14"/><polygon class="cls-3" points="185.04 264.14 157.23 264.14 157.16 256.2 177.06 256.2 185.04 264.14"/><path class="cls-2" d="M196,91.41a46,46,0,1,1-46-46A46,46,0,0,1,196,91.41Z"/><path class="cls-4" d="M134.48,92.41a6.59,6.59,0,1,1-6.59-6.59A6.59,6.59,0,0,1,134.48,92.41Z"/><path class="cls-4" d="M178.71,92.41a6.6,6.6,0,1,1-6.6-6.59A6.6,6.6,0,0,1,178.71,92.41Z"/><path class="cls-5" d="M137.71,117.23h24.58S162.29,129,150,129,137.71,117.23,137.71,117.23Z"/><polygon class="cls-2" points="153.44 237.05 157.25 256.21 177.16 256.21 176.64 237.05 153.44 237.05"/><polygon class="cls-2" points="122.84 256.21 142.75 256.21 146.17 237.05 123.36 237.05 122.84 256.21"/><polygon class="cls-6" points="176.02 214.54 150 214.54 123.98 214.54 123.36 237.05 146.17 237.05 147.39 230.22 152.08 230.21 153.44 237.05 176.64 237.05 176.02 214.54"/><path class="cls-1" d="M119.07,82.88a4.69,4.69,0,0,1,.31-.64,7.22,7.22,0,0,1,1.16-1.48,8.08,8.08,0,0,1,1-.83,7.52,7.52,0,0,1,1.21-.75,7.86,7.86,0,0,1,1.42-.6,9.73,9.73,0,0,1,1.55-.37c.53-.07,1.06-.08,1.59-.1s1,.11,1.52.16.94.24,1.37.36a9,9,0,0,1,1.16.48,7.59,7.59,0,0,1,1.58,1l.56.43s-.27,0-.71-.06c-.21,0-.48-.06-.77-.12s-.63-.08-1-.12-.73-.09-1.13-.12-.83,0-1.25-.07-.87,0-1.32,0-.89.07-1.32.14-.89.13-1.31.25l-.64.15-.62.2c-.4.13-.78.29-1.16.43s-.72.3-1,.47A21.59,21.59,0,0,0,119.07,82.88Z"/><path class="cls-1" d="M181,82.88a21.59,21.59,0,0,0-2.14-1.19c-.32-.17-.68-.3-1-.47s-.76-.3-1.16-.43l-.62-.2-.64-.15c-.42-.12-.87-.16-1.31-.25s-.89-.08-1.32-.14-.89,0-1.32,0-.84.06-1.25.07-.77.1-1.14.12-.69.06-1,.12-.56.09-.77.12c-.44,0-.71.06-.71.06s.19-.16.55-.43a8,8,0,0,1,1.59-1,9,9,0,0,1,1.16-.48c.43-.12.89-.26,1.37-.36s1-.13,1.52-.16,1.06,0,1.59.1a10,10,0,0,1,1.55.37,7.86,7.86,0,0,1,1.42.6,8,8,0,0,1,1.21.75,8.08,8.08,0,0,1,1,.83,7.6,7.6,0,0,1,1.16,1.48A4.69,4.69,0,0,1,181,82.88Z"/><path class="cls-4" d="M196.27,91.18,196,87l-6.11,3.52v-4c0-3-3.1-5.43-6.9-5.43H160.51c-3.81,0-6.91,2.44-6.91,5.43v4a11.71,11.71,0,0,0-3.87-.62,12.94,12.94,0,0,0-4.1.72V86.51c0-3-3.1-5.43-6.91-5.43H116.26c-3.8,0-6.9,2.44-6.9,5.43v4L104,87.73l-.15,4.2,5.49,2.91V98.9c0,3,3.1,5.43,6.9,5.43h22.46c3.81,0,6.91-2.44,6.91-5.43V94.73a8.36,8.36,0,0,1,4.17-1.26h0a6.71,6.71,0,0,1,3.79,1.22V98.9c0,3,3.1,5.43,6.91,5.43H183c3.8,0,6.9-2.44,6.9-5.43V94.84ZM141.13,98.9a2.2,2.2,0,0,1-2.41,1.89H116.26a2.2,2.2,0,0,1-2.4-1.89V86.51a2.2,2.2,0,0,1,2.4-1.89h22.46a2.2,2.2,0,0,1,2.41,1.89Zm44.24,0a2.2,2.2,0,0,1-2.4,1.89H160.51a2.2,2.2,0,0,1-2.41-1.89V86.51a2.2,2.2,0,0,1,2.41-1.89H183a2.2,2.2,0,0,1,2.4,1.89Z"/><path class="cls-1" d="M144.7,35.93c-19.4-1.06-48.38,10.9-44.58,51.92,0,0,37.63-11.64,49.88-26.14,1.47-1.74,2.73-3.36,3.82-4.87,12.63,4,34.47,13.29,43.53,31C197.35,87.85,208.77,33.87,144.7,35.93Z"/><path class="cls-2" d="M120.68,145.89l-6.61,21.31h0l-2.67,8.65v0h0l-8.1,26.33c-3.29.57-9.76,2.21-6.34,5.81,4.5,4.72,10.75,2.25,10.75,2.25s-1.11,4,2.33,1.86c1.92-1.2,2.24-3.46,2.15-5.23h0l10.16-33h0l10.1-29,6.75-4.34C124,135.37,120.68,145.89,120.68,145.89Z"/><path class="cls-2" d="M179.32,145.89l6.61,21.31h0l2.66,8.65v0h0l8.1,26.33c3.28.57,9.76,2.21,6.34,5.81-4.5,4.72-10.75,2.25-10.75,2.25s1.11,4-2.33,1.86c-1.92-1.2-2.24-3.46-2.15-5.23h0l-10.16-33h0l-10.1-29-6.75-4.34C177.39,138.21,179.32,145.89,179.32,145.89Z"/><path class="cls-2" d="M150.05,141.16a90.22,90.22,0,0,1-18.94-2l-17.58,76.7,72.94.17L169,139.16A90.06,90.06,0,0,1,150.05,141.16Z"/><path class="cls-7" d="M169,139.16c-2,.42-4,.77-6,1.07,0,.31,0,.62,0,.93,0,9.05-5.82,16.39-13,16.39s-13-7.34-13-16.39c0-.31,0-.62,0-.93-2-.3-4-.65-6-1.07l-17.58,76.7,72.94.17Z"/><path class="cls-1" d="M107,147.88s11-6.28,12.79,9c0,0,9.15-8.13,5.45-19Z"/><path class="cls-1" d="M191.07,146s-12.07-3.77-10.54,11.54c0,0-10.7-6-9.43-17.39Z"/><path class="cls-1" d="M140.38,140.16s-9.07,1.24-5.2,16.13c0,0-16.39-8.82-16.89-20.31Z"/><path class="cls-1" d="M160.3,139.16s12.51-1.87,8.64,13c0,0,11.48-4.24,12-15.73Z"/></svg>