<svg id="Layer_1" data-name="Layer 1" xmlns="http://www.w3.org/2000/svg" viewBox="0 0 300 300"><defs><style>.cls-1{fill:#ecc19c;}.cls-2{fill:#231f20;}.cls-3{fill:#071f27;}.cls-4{fill:#cf9e76;}.cls-5{fill:#926d5a;}.cls-6{fill:#414042;}.cls-7,.cls-8{fill:#321c0f;}.cls-7{opacity:0.9;}</style></defs><title>Artboard 9</title><path class="cls-1" d="M196.9,109.5c0,18.16-21.17,32.88-47.29,32.88s-47.28-14.72-47.28-32.88,21.17-32.87,47.28-32.87S196.9,91.35,196.9,109.5Z"/><rect class="cls-1" x="142.66" y="131.54" width="14.69" height="16.8"/><polygon class="cls-2" points="101.85 264.41 139.94 264.41 140.05 255.76 112.78 255.76 101.85 264.41"/><polygon class="cls-2" points="198.19 264.41 160.1 264.41 159.99 255.76 187.26 255.76 198.19 264.41"/><polygon class="cls-3" points="186.64 240.95 185.72 218.04 150 218.04 114.28 218.04 113.36 240.95 112.72 256.78 140.05 256.78 144.22 240.95 146.42 232.61 152.85 232.6 155.31 240.95 159.95 256.78 187.28 256.78 186.64 240.95"/><circle class="cls-4" cx="149.87" cy="95.97" r="46" transform="translate(-23.97 134.08) rotate(-45)"/><path class="cls-2" d="M134.34,96a6.6,6.6,0,1,1-6.59-6.6A6.59,6.59,0,0,1,134.34,96Z"/><path class="cls-2" d="M178.58,96a6.6,6.6,0,1,1-6.59-6.6A6.59,6.59,0,0,1,178.58,96Z"/><path class="cls-5" d="M162.16,121.8s0,11.77-12.29,11.77-12.3-11.77-12.3-11.77"/><path class="cls-4" d="M205.76,205.7l-12.86-35-11.28,2.91,13.51,36.79h0a5.13,5.13,0,0,0,2.57,5.23c4.11,2.15,2.79-1.86,2.79-1.86s7.46,2.47,12.82-2.25C217.42,207.92,209.69,206.28,205.76,205.7Z"/><path class="cls-4" d="M94.24,205.7l12.85-35,11.29,2.91-13.51,36.79h0a5.15,5.15,0,0,1-2.57,5.23c-4.11,2.15-2.79-1.86-2.79-1.86s-7.46,2.47-12.82-2.25C82.58,207.92,90.31,206.28,94.24,205.7Z"/><path class="cls-6" d="M199.89,174.56S186.41,145.75,173,142.75l0-.1-.23,0-.16,0v.07a127,127,0,0,1-45.24,0v-.07l-.16,0-.23,0,0,.1c-13.38,3-26.86,31.81-26.86,31.81L117,180.34,105.2,225.11h89.6L183,180.34Z"/><path class="cls-7" d="M195.54,101.69c-.13-.36-.27-.72-.41-1.08-3.26,7.17-12.07,16.43-19.21,21.19-1.41.93-2.67,1.86-3.84,2.77a26.34,26.34,0,0,0-22.21-11.39c-13.27,0-21.21,5.36-22.22,11.39-1.16-.91-2.42-1.84-3.83-2.77-7.36-4.9-16.46-14.56-19.47-21.81l-.23.56a23.63,23.63,0,0,0-1.79,9c0,18.16,21.17,32.88,47.28,32.88a65.88,65.88,0,0,0,16.87-2.16,42.68,42.68,0,0,0,9.82-3.58c12.43-5.92,20.6-15.87,20.6-27.14A23.46,23.46,0,0,0,195.54,101.69Zm-45.67,33.83c-9.45,0-13.29-3.51-18.81-8.17,0,0,1.89-9.17,18.81-9.17,13,0,17.12,5.78,18.44,9.48C163,132.17,159.11,135.52,149.87,135.52Z"/><path class="cls-8" d="M195.65,91.63C193.18,56.82,176.56,45.39,164.32,45c-10.19-16-43.19,10.25-51.08-9.4a38.07,38.07,0,0,0,4.88,14.31c-8.26,4.26-16.19,15.12-14.25,41.73,0,0,12.82-24,25.42-30.31,7.68,4.58,19,6.82,35.68,3C185.59,71.49,195.65,91.63,195.65,91.63Z"/><rect class="cls-8" x="172.21" y="72.41" width="4.44" height="14.34" transform="translate(77.2 244.82) rotate(-84.05)"/><rect class="cls-8" x="117.4" y="77.36" width="14.34" height="4.44" transform="matrix(0.98, -0.17, 0.17, 0.98, -11.95, 22.91)"/><path class="cls-2" d="M196.2,94.45l-.29-4.17L189.8,93.8v-4c0-3-3.1-5.44-6.91-5.44H160.44c-3.81,0-6.91,2.44-6.91,5.44v4a11.69,11.69,0,0,0-3.86-.62,12.68,12.68,0,0,0-4.11.72V89.78c0-3-3.1-5.44-6.91-5.44H116.19c-3.8,0-6.9,2.44-6.9,5.44v4L104,91l-.15,4.21,5.49,2.91v4c0,3,3.1,5.44,6.9,5.44h22.46c3.81,0,6.91-2.44,6.91-5.44V98a8.37,8.37,0,0,1,4.17-1.25h0A6.71,6.71,0,0,1,153.53,98v4.2c0,3,3.1,5.44,6.91,5.44h22.45c3.81,0,6.91-2.44,6.91-5.44v-4Zm-55.14,7.71a2.2,2.2,0,0,1-2.41,1.9H116.19a2.2,2.2,0,0,1-2.4-1.9V89.78a2.2,2.2,0,0,1,2.4-1.9h22.46a2.2,2.2,0,0,1,2.41,1.9Zm44.24,0a2.2,2.2,0,0,1-2.41,1.9H160.44a2.2,2.2,0,0,1-2.41-1.9V89.78a2.2,2.2,0,0,1,2.41-1.9h22.45a2.2,2.2,0,0,1,2.41,1.9Z"/></svg>